<?xml version="1.0" encoding="UTF-8"?>
<svg id="_圖層_1" data-name="圖層 1" xmlns="http://www.w3.org/2000/svg" width="1000" height="469.39" viewBox="0 0 1000 469.39">
  <defs>
    <style>
      .cls-1 {
        fill: #fff;
      }

      .cls-2 {
        fill: #aed5e1;
      }

      .cls-3 {
        fill: none;
        stroke: #aed5e1;
        stroke-linejoin: round;
        stroke-width: 17px;
      }

      .cls-4 {
        fill: #49bcbf;
      }

      .cls-5 {
        fill: #3496b5;
      }

      .cls-6 {
        fill: #6868ac;
      }
    </style>
  </defs>
  <polyline class="cls-3" points="907.44 172.62 907.44 233.58 56.19 233.58 56.19 384.91 109.11 384.91"/>
  <g>
    <rect class="cls-5" width="185.11" height="165.8" rx="14.33" ry="14.33"/>
    <g>
      <path class="cls-1" d="m64.86,57.2c1.04,3.18,2.88,5.36,4.66,5.34.58-.02.82-.82.92-2.92.34.3.9.58,1.3.7-.24,2.92-.84,3.68-2.3,3.68-2.68.02-4.98-2.82-6.14-6.8h-6.02v5l4.8-1.16c0,.4.08,1.06.16,1.36-5.44,1.46-6.18,1.64-6.66,1.94-.12-.4-.44-1.06-.7-1.36.36-.18.88-.64.88-1.46v-14.52h14.14v5.78h-5.84c.06,1.06.22,2.06.44,3.02h6.88v1.4h-6.52Zm-7.58-8.8v2.98h11.14v-2.98h-11.14Zm5.66,7.4c-.18-.96-.34-1.96-.4-3.02h-5.26v3.02h5.66Z"/>
      <path class="cls-1" d="m79.04,55.88c-.16.74-.4,1.56-.72,2.4,1.1.78,2.38,1.86,2.96,2.62l-.8,1.04c-.54-.68-1.64-1.7-2.64-2.54-.76,1.5-1.88,2.9-3.62,3.84-.2-.32-.62-.86-.92-1.08,2.86-1.42,3.84-4.32,4.28-6.28h1.46Zm11.84-1.88c-2.04.34-4.7.62-7.5.82v9.66h-1.46v-9.58c-2.3.14-4.62.22-6.62.26-.2-.36-.58-1.06-.88-1.4,5.04.08,11.66-.26,15.36-.86l1.1,1.1Zm-.36-2h-15.72v-5.26h15.72v5.26Zm-11.04-3.94h-3.26v2.6h3.26v-2.6Zm4.74,0h-3.36v2.6h3.36v-2.6Zm4.58,7.44c-.14.84-.34,1.72-.62,2.58.7,1.24,2.08,2.96,3.56,3.86-.32.26-.76.74-.98,1.08-1.22-.86-2.38-2.32-3.18-3.52-.68,1.42-1.7,2.74-3.24,3.68-.2-.36-.64-.88-.96-1.12,2.72-1.5,3.58-4.44,3.96-6.56h1.46Zm.24-7.44h-3.44v2.6h3.44v-2.6Z"/>
      <path class="cls-1" d="m99.58,56.04c-.72.26-1.46.48-2.2.74v5.6c0,.82-.18,1.2-.68,1.44-.46.24-1.22.3-2.48.28-.06-.36-.24-.96-.44-1.38.86.02,1.64.02,1.86.02.26,0,.36-.08.36-.38v-5.14c-.82.28-1.6.52-2.32.74l-.36-1.44c.74-.18,1.66-.46,2.68-.78v-4.38h-2.46v-1.38h2.46v-3.98h1.38v3.98h2.2v1.38h-2.2v3.94l2.02-.62.18,1.36Zm6.66,6.46c.58.08,1.22.12,1.88.12.48,0,3.2,0,3.86-.02-.2.32-.38.94-.44,1.32h-3.48c-2.88,0-4.98-.54-6.28-3.34-.56,1.5-1.34,2.72-2.4,3.66-.22-.24-.78-.7-1.1-.9,1.78-1.4,2.66-3.64,2.98-6.6l1.38.16c-.1.74-.22,1.48-.4,2.14.58,1.68,1.46,2.6,2.6,3.08v-6.32h-4.88v-1.26h11.4v1.26h-5.12v2.34h4.14v1.22h-4.14v3.14Zm4.02-9.38h-9.38v-6.48h9.38v6.48Zm-1.42-5.36h-6.6v1.58h6.6v-1.58Zm0,2.62h-6.6v1.6h6.6v-1.6Z"/>
      <path class="cls-1" d="m130.5,55.9v8.3h-1.6v-1.14h-14.08v-7.16h1.6v5.7h5.4v-6.96h-6.12v-6.84h1.54v5.38h4.58v-7.2h1.6v7.2h4.7v-5.4h1.6v6.86h-6.3v6.96h5.48v-5.7h1.6Z"/>
      <path class="cls-1" d="m40.56,78.15h-7.04v-1.24h7.04v1.24Zm-.48,2.64h-6.04v-1.18h6.04v1.18Zm-6.04,1.46h6.04v1.2h-6.04v-1.2Zm5.94,8.48h-4.68v.92h-1.26v-6.7h5.94v5.78Zm-4.68-4.56v3.34h3.4v-3.34h-3.4Zm1.5-9.38c-.22-.72-.76-1.86-1.24-2.72l1.26-.44c.52.82,1.04,1.92,1.32,2.64l-1.34.52Zm3.22,12.66c.68-1.08,1.16-2.84,1.4-4.2l1.06.32c-.26,1.44-.7,3.26-1.38,4.36l-1.08-.48Zm6.76-13.78c-.36,3.6-1.36,6.58-5.04,8.24-.16-.34-.56-.84-.86-1.06,1.78-.76,2.86-1.82,3.52-3.16-.74-.76-1.96-1.82-2.9-2.6l.78-.84c.84.66,1.88,1.52,2.64,2.18.26-.86.4-1.78.5-2.76h-4.12v-1.28h9.74s-.02.44-.02.64c-.22,5.06-.44,6.86-.92,7.48-.34.4-.72.54-1.26.58-.5.04-1.38.04-2.26,0-.04-.4-.18-.94-.42-1.32.92.08,1.76.1,2.08.1s.48-.04.66-.24c.32-.36.52-1.92.68-5.96h-2.8Zm.66,14.56c.66,0,.78-.34.84-2.66.28.22.82.42,1.18.5-.14,2.72-.5,3.36-1.88,3.36h-2.6c-1.58,0-1.98-.4-1.98-1.78v-4.86h1.3v4.86c0,.48.14.58.82.58h2.32Zm-1.9-6.88c.84.88,1.76,2.1,2.2,2.86l-.98.68c-.42-.78-1.32-2.04-2.14-2.96l.92-.58Zm4.64,1.1c.72,1.32,1.48,3.06,1.76,4.12l-1.14.44c-.28-1.08-.98-2.86-1.68-4.2l1.06-.36Z"/>
      <path class="cls-1" d="m60.2,78.21h-6.66v-1.22h6.66v1.22Zm-.48,12.44h-4.26v.94h-1.18v-6.72h5.44v5.78Zm-.1-9.86h-5.32v-1.18h5.32v1.18Zm-5.32,1.42h5.32v1.18h-5.32v-1.18Zm1.16,3.9v3.3h3.06v-3.3h-3.06Zm1.58-9.34c-.28-.72-.96-1.84-1.5-2.68l1.02-.64c.58.8,1.24,1.86,1.56,2.58l-1.08.74Zm6.38,2.9c-.72.98-1.56,1.78-2.44,2.36-.2-.28-.62-.76-.9-1,.84-.5,1.66-1.3,2.34-2.26-.48-.44-1.22-1.02-1.84-1.4l.82-.96c.58.34,1.24.82,1.72,1.22.38-.64.68-1.36.92-2.08h-2.92v-1.22h3.42l.26-.04.86.3c-.4,1.8-1.08,3.4-1.96,4.68h4.76c-1-1.48-1.76-3.28-2.26-5.22l1.24-.24c.16.58.34,1.14.56,1.7.54-.46,1.16-1,1.52-1.4l.9.82c-.6.58-1.34,1.18-1.98,1.62.2.4.4.8.64,1.16.6-.4,1.3-.96,1.72-1.34l.9.82c-.62.52-1.38,1.02-2.04,1.4.7.92,1.48,1.68,2.38,2.22-.34.22-.78.72-1,1.08-.92-.62-1.76-1.44-2.46-2.46v1.06h-5.16v-.82Zm6.02,7.48c-.46.98-1.04,2.12-1.54,2.98h3.76v1.22h-11.26v-1.22h6.1c.52-.94,1.18-2.36,1.5-3.36l1.44.38Zm.46-.56h-7.84v-4.74h7.84v4.74Zm-6.04,3.5c-.12-.76-.6-1.98-1.16-2.9l1.3-.34c.56.9,1.06,2.08,1.2,2.84l-1.34.4Zm4.7-7.06h-5.22v2.38h5.22v-2.38Z"/>
      <path class="cls-1" d="m81.88,77.79h-6.22v3.22h-1.42v-4.28h7.64v-1.28h-6.78v-1.06h15.08v1.06h-6.86v1.28h7.78v4.28h-1.46v-3.22h-6.32v4.54h-1.44v-4.54Zm7.3,12.6c1.06,0,1.26-.34,1.36-2.32.34.22.88.4,1.3.48-.22,2.42-.66,3.04-2.56,3.04h-4.6c-2.22,0-2.86-.4-2.86-2v-.62h-4.42v1.04h-1.44v-6.94h13.48v5.9h-6.18v.62c0,.68.24.8,1.48.8h4.44Zm-13.16-9.16c1.26-.12,2.98-.38,4.74-.66l.06.94c-1.54.32-3.06.64-4.36.88l-.44-1.16Zm.96-3.04c1.28.2,2.94.66,3.84,1.04l-.44.92c-.88-.42-2.54-.9-3.86-1.16l.46-.8Zm.42,5.96v1.36h4.42v-1.36h-4.42Zm4.42,3.74v-1.38h-4.42v1.38h4.42Zm6.16-3.74h-4.72v1.36h4.72v-1.36Zm0,3.74v-1.38h-4.72v1.38h4.72Zm.84-5.44c-1.08-.38-3.1-.86-4.66-1.1l.36-.9c1.52.18,3.56.6,4.64.98l-.34,1.02Zm.02-3.52c-1.14.48-2.76.9-3.9,1.14l-.52-.78c1.14-.24,2.82-.86,3.78-1.2l.64.84Z"/>
      <path class="cls-1" d="m111.66,83.93h-8.16v5.96c0,1-.26,1.46-1.02,1.68-.74.26-2,.28-3.92.28-.1-.44-.38-1.1-.64-1.52,1.62.06,3.08.04,3.52.02.4-.02.54-.12.54-.48v-5.94h-8.24v-1.48h8.24v-2.88c1.66-.76,3.6-2,5-3.16h-11.26v-1.46h12.88l.32-.08,1.12.84c-1.7,1.68-4.26,3.46-6.54,4.62v2.12h8.16v1.48Z"/>
      <path class="cls-1" d="m119.16,74.07c-.46,1.34-1.04,2.68-1.68,3.94v13.92h-1.38v-11.52c-.6.96-1.26,1.82-1.9,2.58-.14-.32-.56-1.04-.82-1.38,1.8-1.94,3.44-4.92,4.46-7.94l1.32.4Zm12.4,2.82v1.26h-12.66v-1.26h12.66Zm-11.5,8.56h10.12v6.36h-1.32v-.72h-7.5v.78h-1.3v-6.42Zm9.92-4.48h-9.64v-1.22h9.64v1.22Zm-9.64,1.58h9.64v1.22h-9.64v-1.22Zm1.02,4.14v3.16h7.5v-3.16h-7.5Zm3.52-9.92c-.26-.7-.88-1.84-1.38-2.66l1.26-.52c.58.84,1.18,1.9,1.46,2.6l-1.34.58Z"/>
      <path class="cls-1" d="m136.56,76.53c-.64.98-1.34,1.88-2.04,2.58-.26-.26-.8-.78-1.14-.98,1.3-1.14,2.46-2.86,3.14-4.6l1.4.38c-.18.46-.4.9-.64,1.34h5.16v1.28h-5.88Zm2.26,7.1c.82.72,2.72,2.5,3.2,2.98l-.96,1.16c-.44-.58-1.42-1.7-2.24-2.6v6.7h-1.42v-6.66c-.88,1.72-2.02,3.4-3.06,4.52-.2-.36-.6-.84-.94-1.14,1.34-1.26,2.82-3.58,3.7-5.7h-3.18v-1.38h3.48v-2.26h1.42v2.26h3.16v1.38h-3.16v.74Zm.94-4.14c-.42-.6-1.28-1.52-2-2.18l.9-.78c.74.6,1.62,1.5,2.06,2.08l-.96.88Zm11.84-4.2v1.28h-3.9c.72.66,1.6,1.54,2.06,2.1l-.94.92c-.46-.64-1.4-1.64-2.16-2.36l.76-.66h-2.32c-.58.96-1.22,1.82-1.88,2.5-.28-.24-.92-.68-1.26-.86,1.28-1.12,2.34-2.86,2.92-4.68l1.44.32c-.14.5-.34.96-.56,1.44h5.84Zm-9,4.68h8.24v11.76h-1.48v-.74h-5.32v.86h-1.44v-11.88Zm1.44,1.34v1.98h5.32v-1.98h-5.32Zm5.32,5.18v-2.04h-5.32v2.04h5.32Zm0,3.24v-2.08h-5.32v2.08h5.32Z"/>
      <path class="cls-1" d="m90.46,103.86v11.2h-1.5v-1.04h-5.6v5.44h-1.52v-5.44h-5.42v1.14h-1.46v-11.3h6.88v-2.64h1.52v2.64h7.1Zm-14.04,1.42v2.9h5.42v-2.9h-5.42Zm5.42,7.3v-3.02h-5.42v3.02h5.42Zm1.52-7.3v2.9h5.6v-2.9h-5.6Zm5.6,7.3v-3.02h-5.6v3.02h5.6Z"/>
      <path class="cls-1" d="m93.62,104.58h6.86v1.22h-6.86v-1.22Zm6.28,3.7h-5.82v-1.18h5.82v1.18Zm-5.8,1.52h5.82v1.18h-5.82v-1.18Zm5.76,8.52h-4.38v.92h-1.3v-6.7h5.68v5.78Zm-4.38-4.56v3.34h3.06v-3.34h-3.06Zm1.5-9.4c-.18-.72-.64-1.86-1-2.7l1.24-.38c.42.82.86,1.92,1.04,2.62l-1.28.46Zm13.66,13.58c0,.72-.14,1.08-.68,1.3-.5.22-1.32.22-2.58.22-.06-.38-.22-.88-.42-1.24.9.04,1.72.04,1.96.02.26,0,.32-.08.32-.3v-1.7h-6.2c-.22,1.26-.62,2.52-1.44,3.5-.22-.28-.74-.82-1.04-.98,1.18-1.5,1.32-3.52,1.32-5.1v-3.68h8.76v7.96Zm1.16-10.28v1.14h-11.1v-1.14h4.72v-1.36h-4v-1.08h4v-1.22h-4.5v-1.14h4.5v-1.62h1.46v1.62h4.72v1.14h-4.72v1.22h4.34v1.08h-4.34v1.36h4.92Zm-2.56,7.52v-1.48h-6c0,.46-.02.96-.06,1.48h6.06Zm-6-4.02v1.48h6v-1.48h-6Z"/>
    </g>
  </g>
  <g>
    <rect class="cls-5" x="543.26" width="185.11" height="165.8" rx="14.33" ry="14.33"/>
    <g>
      <path class="cls-1" d="m581.67,69.51c-.38,1.76-.96,3.7-1.64,5.16.38.22.86.6,1.6,1.04,1.42.86,3.22,1,5.6,1,2.56,0,5.8-.2,8.04-.42-.2.4-.42,1.1-.46,1.54-1.48.1-5.28.22-7.64.22-2.64,0-4.38-.22-5.86-1.1-.8-.48-1.54-1.16-2-1.16s-1.12,1.26-1.7,2.52l-1.02-1.34c.7-1,1.4-1.82,2-2.22.6-1.14,1.12-2.72,1.44-4.16h-2.62c.56-1.18,1.18-2.88,1.72-4.46h-2.22v-1.34h4.1c-.5,1.44-1.12,3.12-1.66,4.5h1.38l.26-.06.68.28Zm-2.7-5.76c-.24-.88-.7-2.24-1.02-3.28l1.3-.4c.36,1.04.82,2.36,1.06,3.22l-1.34.46Zm4.6,2.26c-.48.62-.98,1.18-1.48,1.68-.18-.3-.64-.98-.92-1.28,1.74-1.52,3.24-3.9,4.14-6.42l1.36.38c-.36.98-.8,1.96-1.3,2.88h3.98c-.3-.76-.78-1.7-1.2-2.46l1.36-.4c.56.88,1.16,2.02,1.46,2.86h3.5v1.3h-4.3v1.94h3.64v1.26h-3.64v1.98h3.6v1.26h-3.6v2.08h4.64v1.28h-9.8v1.16h-1.44v-9.5Zm5.18-1.46h-3.74v1.94h3.74v-1.94Zm0,3.2h-3.74v1.98h3.74v-1.98Zm0,3.24h-3.74v2.08h3.74v-2.08Z"/>
      <path class="cls-1" d="m606.86,61.19c0,3.5.42,10.96,8.18,15.6-.34.28-.88.94-1.1,1.32-4.9-2.96-7.02-7.3-7.92-11.06-1.5,5.16-4.04,8.82-8,11.14-.26-.3-.94-.94-1.34-1.22,4.4-2.28,6.88-6.3,8.12-11.9l.86.16c-.14-.94-.22-1.8-.26-2.56h-4.9v-1.48h6.36Z"/>
      <path class="cls-1" d="m617.21,76.99c1-.88,1.88-2.32,2.36-3.48l1.24.56c-.56,1.2-1.38,2.68-2.4,3.62l-1.2-.7Zm17.3-12.36v1.22h-17.08v-1.22h4.62c-.16-.52-.42-1.18-.72-1.7l1.26-.28h-4.26v-1.22h7.14c-.2-.46-.46-.92-.7-1.32l1.44-.3c.34.46.66,1.1.9,1.62h6.38v1.22h-3.98l1.16.26c-.32.62-.64,1.2-.94,1.72h4.78Zm-2.32,8h-6.94c1.04.56,2.24,1.38,2.86,1.96l-.92.92c-.64-.66-2-1.6-3.1-2.24l.68-.64h-5.02v-5.78h12.44v5.78Zm-1.46-4.76h-9.56v1.38h9.56v-1.38Zm0,2.36h-9.56v1.38h9.56v-1.38Zm-2.66,6.58c.86,0,.98-.24,1.08-2.02.32.22.9.42,1.28.52-.16,2.2-.62,2.74-2.22,2.74h-3.76c-2.02,0-2.56-.38-2.56-1.8v-2.58h1.46v2.58c0,.46.18.56,1.22.56h3.5Zm-5.36-14.16c.36.6.72,1.4.88,1.98h4.62c.34-.62.7-1.4.92-1.98h-6.42Zm9.18,10.68c1,1,2.12,2.44,2.62,3.42l-1.26.64c-.44-1-1.54-2.46-2.54-3.54l1.18-.52Z"/>
      <path class="cls-1" d="m652.58,76.71c.82,0,.94-.34,1.04-2.78.34.24.98.48,1.4.58-.18,2.9-.62,3.62-2.32,3.62h-3.1c-1.9,0-2.4-.44-2.4-2.08v-4.06h-3.26c-.46,3.26-1.72,5.28-6.34,6.36-.12-.38-.54-1.04-.88-1.36,4.18-.84,5.24-2.4,5.64-5h-2.7v-11.32h12.54v11.32h-3.5v4.06c0,.58.14.66,1.04.66h2.84Zm-11.48-12.68h9.6v-2.04h-9.6v2.04Zm0,3.3h9.6v-2.06h-9.6v2.06Zm0,3.34h9.6v-2.08h-9.6v2.08Z"/>
      <path class="cls-1" d="m673.78,76.27c0,.94-.22,1.42-.88,1.68s-1.78.28-3.48.28c-.06-.44-.3-1.16-.54-1.58,1.32.06,2.54.06,2.92.04.36-.02.48-.12.48-.44v-10.38h-5.1c.78,3.04,2.28,5.24,4.9,6.36-.34.3-.82.9-1.06,1.3-2.66-1.32-4.22-3.6-5.06-6.64-.84,3.12-2.46,5.38-5.16,6.78-.22-.34-.7-.9-1.02-1.16,2.7-1.32,4.36-3.48,5.06-6.64h-5.18v12.32h-1.48v-13.78h7.28c-.1-.7-.18-1.44-.22-2.2h-3.6v-1.34h4.86c.06,1.26.18,2.44.38,3.54h6.9v11.86Z"/>
      <path class="cls-1" d="m687.12,66.41c-.12.16-.24.34-.38.52,2.26,2.56,5.08,4.12,8.28,5.38-.34.32-.74.84-.96,1.26-.88-.38-1.74-.82-2.56-1.28v5.88h-1.5v-.6h-8.2v.68h-1.44v-5.74c-.86.5-1.76.94-2.68,1.3-.22-.36-.6-.86-.94-1.2,3.66-1.36,7.18-3.84,9.08-6.78l1.3.58Zm-8.04-1h-1.44v-3.62h7.76c-.22-.52-.52-1.14-.8-1.62l1.52-.36c.36.6.78,1.38,1.02,1.98h7.06v3.62h-1.5v-2.26h-13.62v2.26Zm4.88-.86c-1.32,1.74-3.34,3.38-5.16,4.42-.22-.28-.72-.86-1.04-1.12,1.78-.9,3.66-2.3,4.82-3.76l1.38.46Zm6.04,11.68v-3.34h-8.2v3.34h8.2Zm.26-4.68c-1.56-.98-2.98-2.14-4.3-3.58-1.14,1.32-2.54,2.54-4.06,3.58h8.36Zm-1.64-7.44c1.82,1.08,4.12,2.7,5.22,3.84l-1.04.98c-1.08-1.14-3.32-2.84-5.16-3.98l.98-.84Z"/>
      <path class="cls-1" d="m602.8,100.71c-1.94.84-3.98,1.72-5.58,2.36l-.56-1.48c.68-.2,1.48-.5,2.38-.84v-6.96h-2.24v-1.42h2.24v-4.54h1.44v4.54h2.24v1.42h-2.24v6.4c.68-.24,1.38-.52,2.06-.8l.26,1.32Zm5.1,2.3c-1.26,1.04-3.16,2.16-4.66,2.86-.18-.3-.62-.74-.92-1.04,1.48-.66,3.36-1.76,4.3-2.66l1.28.84Zm7.16-2.18v1.3h-12.42v-1.3h1.78v-8.82h2.94c.1-.42.2-.86.28-1.34h-4.24v-1.22h4.46c.12-.64.2-1.28.26-1.82l1.58.1c-.12.54-.24,1.14-.38,1.72h5.2v1.22h-5.48c-.12.48-.24.92-.36,1.34h4.56v8.82h1.82Zm-9.32-7.78v1.28h6.14v-1.28h-6.14Zm6.14,2.18h-6.14v1.18h6.14v-1.18Zm-6.14,3.34h6.14v-1.24h-6.14v1.24Zm0,2.26h6.14v-1.34h-6.14v1.34Zm5.06,1.32c1.34.76,3.1,1.92,3.96,2.68l-.98,1.04c-.84-.78-2.54-2-3.9-2.82l.92-.9Z"/>
      <path class="cls-1" d="m633.8,99.39s-.02.42-.04.62c-.22,3.4-.44,4.78-.94,5.28-.32.38-.7.5-1.24.52-.5.06-1.46.04-2.44-.02-.04-.4-.18-.94-.42-1.3.98.08,1.88.1,2.22.08.34.02.52,0,.68-.16.28-.32.48-1.34.66-3.8h-10.76c-1.14.94-2.46,1.72-3.78,2.32-.18-.3-.62-.9-.88-1.18,2.04-.8,4.1-2.08,5.36-3.64h-2.36v-5.64c1.64-.34,3.54-.84,4.66-1.3l.92.94c-1.2.46-2.78.84-4.24,1.14v1.34h3.88v1.06h-3.88v1.38h9.4v-1.38h-3.8v-1.06h3.8v-1.32h-4.14v-1.1h5.5v5.94h-8.1c-.3.44-.64.88-1.04,1.28h10.98Zm.58-10.16v3.5h-1.42v-2.2h-14.1v2.22h-1.38v-3.52h7.64c-.2-.46-.44-.9-.66-1.3l1.48-.42c.32.52.66,1.18.9,1.72h7.54Zm-14.98,15.54c.8-.9,1.48-2.4,1.86-3.54l1.18.48c-.42,1.18-1.04,2.68-1.84,3.64l-1.2-.58Zm5.06-3.38c.4,1.1.72,2.56.72,3.46l-1.22.18c.02-.92-.28-2.38-.66-3.5l1.16-.14Zm2.42-.16c.62.94,1.18,2.2,1.36,3.02l-1.14.36c-.18-.82-.7-2.12-1.3-3.08l1.08-.3Zm3.12,2.52c-.3-.66-1.02-1.6-1.68-2.26l.98-.46c.68.62,1.44,1.54,1.74,2.18l-1.04.54Z"/>
      <path class="cls-1" d="m638.83,100.57c-.2,1.74-.58,3.58-.98,4.82-.24-.14-.82-.32-1.1-.4.44-1.24.74-3,.94-4.6l1.14.18Zm3.96-5.38c.52,1.26,1.1,2.86,1.34,3.82l-1.12.44c-.06-.28-.16-.62-.24-.96-4.46.7-5.06.84-5.44,1.04-.04-.3-.26-.94-.42-1.3.4-.08.84-.58,1.42-1.34.32-.38.94-1.24,1.64-2.34-2.08.24-2.5.34-2.76.48-.08-.28-.28-.94-.42-1.28.32-.08.66-.5,1.06-1.1.42-.6,1.78-2.88,2.56-5.04l1.26.54c-.84,1.88-1.92,3.84-3.02,5.36l2.1-.2c.5-.86,1.04-1.82,1.46-2.76l1.16.7c-1.26,2.36-2.8,4.74-4.38,6.64l3.44-.48c-.22-.64-.48-1.28-.7-1.86l1.06-.36Zm-2,5.12c.28,1.32.5,3.04.56,4.2l-1.12.28c-.04-1.18-.26-2.92-.48-4.28l1.04-.2Zm2.1-.52c.46,1.24.98,2.82,1.18,3.84l-1.04.38c-.2-1.06-.68-2.66-1.12-3.88l.98-.34Zm11.68,4.4c0,.82-.16,1.18-.68,1.42-.48.24-1.3.26-2.52.26-.04-.36-.22-.96-.38-1.32.84.04,1.64.02,1.88.02.26-.02.34-.1.34-.38v-14.32h-7.48v16.02h-1.34v-17.34h10.18v15.64Zm-3.22-3.3c.32,0,.88-.02,1.18-.1.04.34.08.8.12,1.1-.26.08-.78.1-1.28.1h-2.56c-1.32,0-1.62-.48-1.62-1.8v-1.94h-.74v-1.18h2.72c-.18-.54-.5-1.24-.78-1.76l.92-.36h-3.06v-1.18h3.8c.36-.94.76-2.34.94-3.3l1.08.32c-.3.98-.66,2.12-.98,2.98h1.7v1.18h-3.36c.34.58.7,1.36.88,1.8l-.72.32h2.96v1.18h-4.12v1.96c0,.52.06.68.48.68h2.44Zm-3.5-10.46c.5.88.96,2.06,1.08,2.84l-.96.34c-.14-.78-.56-1.98-1.04-2.86l.92-.32Z"/>
      <path class="cls-1" d="m664.52,103.11c-1.76,1.08-4.46,2.16-6.64,2.78-.24-.3-.68-.84-1.02-1.16,2.18-.56,4.9-1.64,6.28-2.56l1.38.94Zm.08-11.28c.16-.56.32-1.22.44-1.82h-7.44v-1.36h16.52v1.36h-7.42c-.22.62-.42,1.26-.6,1.82h6.52v10.14h-13.1v-10.14h5.08Zm6.44,1.18h-10v1.84h10v-1.84Zm0,2.96h-10v1.84h10v-1.84Zm0,2.96h-10v1.84h10v-1.84Zm-2.72,3.3c2.32.78,4.86,1.8,6.38,2.58l-1.18,1.1c-1.42-.78-3.8-1.84-6.14-2.66l.94-1.02Z"/>
    </g>
  </g>
  <g>
    <g>
      <rect class="cls-5" x="814.89" width="185.11" height="165.8" rx="14.33" ry="14.33"/>
      <g>
        <path class="cls-1" d="m864.24,43.39c.76,0,.88-.36.96-2.64.34.26.94.48,1.36.58-.18,2.76-.6,3.44-2.18,3.44h-3.06c-1.82,0-2.28-.46-2.28-2.04v-4.98h-3.52c-.3,4.14-1.34,6.3-6.3,7.36-.12-.38-.5-.96-.78-1.24,4.5-.88,5.34-2.58,5.58-6.12h-5.32v-1.42h17.56v1.42h-5.74v4.96c0,.58.14.68.96.68h2.76Zm-13.58-9.9h-1.46v-4.38h7.72c-.28-.66-.66-1.44-1-2.04l1.48-.42c.48.76,1,1.74,1.28,2.46h7.04v4.38h-1.52v-2.96h-13.54v2.96Zm1.4.54v-1.38h10.78v1.38h-10.78Z"/>
        <path class="cls-1" d="m885.22,33.59c-.86,2.58-2.04,4.86-3.52,6.76.74,1.96,1.66,3.1,2.68,3.1.56,0,.8-1.04.94-3.7.34.34.88.68,1.28.8-.28,3.4-.82,4.38-2.34,4.38s-2.74-1.22-3.66-3.28c-1.2,1.3-2.58,2.42-4.12,3.32-.22-.3-.74-.9-1.08-1.18,1.78-.96,3.32-2.2,4.6-3.7-.72-2.26-1.2-5.2-1.46-8.42h-6.9v2.6h5.1v.64c-.1,4.48-.22,6.16-.64,6.68-.3.38-.64.52-1.2.58-.5.04-1.4.04-2.38,0-.02-.46-.18-1.02-.42-1.4.92.08,1.78.1,2.12.1.28,0,.48-.04.6-.22.28-.3.38-1.56.46-5h-3.64v.16c0,2.8-.3,6.82-2.1,9.42-.26-.3-.9-.82-1.24-1,1.64-2.44,1.82-5.86,1.82-8.44v-5.58h8.34c-.08-1.1-.1-2.22-.12-3.36h1.54c0,1.16.02,2.28.08,3.36h6.46v1.46h-6.36c.2,2.66.56,5.04,1.1,6.94,1.08-1.58,1.94-3.38,2.56-5.4l1.5.38Zm-3.46-6.68c1.24.62,2.8,1.58,3.58,2.28l-.92,1.02c-.76-.7-2.28-1.72-3.54-2.4l.88-.9Z"/>
        <path class="cls-1" d="m905.34,43.13c0,.94-.22,1.42-.88,1.68s-1.78.28-3.48.28c-.06-.44-.3-1.16-.54-1.58,1.32.06,2.54.06,2.92.04.36-.02.48-.12.48-.44v-10.38h-5.1c.78,3.04,2.28,5.24,4.9,6.36-.34.3-.82.9-1.06,1.3-2.66-1.32-4.22-3.6-5.06-6.64-.84,3.12-2.46,5.38-5.16,6.78-.22-.34-.7-.9-1.02-1.16,2.7-1.32,4.36-3.48,5.06-6.64h-5.18v12.32h-1.48v-13.78h7.28c-.1-.7-.18-1.44-.22-2.2h-3.6v-1.34h4.86c.06,1.26.18,2.44.38,3.54h6.9v11.86Z"/>
        <path class="cls-1" d="m918.68,33.27c-.12.16-.24.34-.38.52,2.26,2.56,5.08,4.12,8.28,5.38-.34.32-.74.84-.96,1.26-.88-.38-1.74-.82-2.56-1.28v5.88h-1.5v-.6h-8.2v.68h-1.44v-5.74c-.86.5-1.76.94-2.68,1.3-.22-.36-.6-.86-.94-1.2,3.66-1.36,7.18-3.84,9.08-6.78l1.3.58Zm-8.04-1h-1.44v-3.62h7.76c-.22-.52-.52-1.14-.8-1.62l1.52-.36c.36.6.78,1.38,1.02,1.98h7.06v3.62h-1.5v-2.26h-13.62v2.26Zm4.88-.86c-1.32,1.74-3.34,3.38-5.16,4.42-.22-.28-.72-.86-1.04-1.12,1.78-.9,3.66-2.3,4.82-3.76l1.38.46Zm6.04,11.68v-3.34h-8.2v3.34h8.2Zm.26-4.68c-1.56-.98-2.98-2.14-4.3-3.58-1.14,1.32-2.54,2.54-4.06,3.58h8.36Zm-1.64-7.44c1.82,1.08,4.12,2.7,5.22,3.84l-1.04.98c-1.08-1.14-3.32-2.84-5.16-3.98l.98-.84Z"/>
        <path class="cls-1" d="m934.36,39.93c-1.94.84-3.98,1.72-5.58,2.36l-.56-1.48c.68-.2,1.48-.5,2.38-.84v-6.96h-2.24v-1.42h2.24v-4.54h1.44v4.54h2.24v1.42h-2.24v6.4c.68-.24,1.38-.52,2.06-.8l.26,1.32Zm5.1,2.3c-1.26,1.04-3.16,2.16-4.66,2.86-.18-.3-.62-.74-.92-1.04,1.48-.66,3.36-1.76,4.3-2.66l1.28.84Zm7.16-2.18v1.3h-12.42v-1.3h1.78v-8.82h2.94c.1-.42.2-.86.28-1.34h-4.24v-1.22h4.46c.12-.64.2-1.28.26-1.82l1.58.1c-.12.54-.24,1.14-.38,1.72h5.2v1.22h-5.48c-.12.48-.24.92-.36,1.34h4.56v8.82h1.82Zm-9.32-7.78v1.28h6.14v-1.28h-6.14Zm6.14,2.18h-6.14v1.18h6.14v-1.18Zm-6.14,3.34h6.14v-1.24h-6.14v1.24Zm0,2.26h6.14v-1.34h-6.14v1.34Zm5.06,1.32c1.34.76,3.1,1.92,3.96,2.68l-.98,1.04c-.84-.78-2.54-2-3.9-2.82l.92-.9Z"/>
        <path class="cls-1" d="m965.36,38.61s-.02.42-.04.62c-.22,3.4-.44,4.78-.94,5.28-.32.38-.7.5-1.24.52-.5.06-1.46.04-2.44-.02-.04-.4-.18-.94-.42-1.3.98.08,1.88.1,2.22.08.34.02.52,0,.68-.16.28-.32.48-1.34.66-3.8h-10.76c-1.14.94-2.46,1.72-3.78,2.32-.18-.3-.62-.9-.88-1.18,2.04-.8,4.1-2.08,5.36-3.64h-2.36v-5.64c1.64-.34,3.54-.84,4.66-1.3l.92.94c-1.2.46-2.78.84-4.24,1.14v1.34h3.88v1.06h-3.88v1.38h9.4v-1.38h-3.8v-1.06h3.8v-1.32h-4.14v-1.1h5.5v5.94h-8.1c-.3.44-.64.88-1.04,1.28h10.98Zm.58-10.16v3.5h-1.42v-2.2h-14.1v2.22h-1.38v-3.52h7.64c-.2-.46-.44-.9-.66-1.3l1.48-.42c.32.52.66,1.18.9,1.72h7.54Zm-14.98,15.54c.8-.9,1.48-2.4,1.86-3.54l1.18.48c-.42,1.18-1.04,2.68-1.84,3.64l-1.2-.58Zm5.06-3.38c.4,1.1.72,2.56.72,3.46l-1.22.18c.02-.92-.28-2.38-.66-3.5l1.16-.14Zm2.42-.16c.62.94,1.18,2.2,1.36,3.02l-1.14.36c-.18-.82-.7-2.12-1.3-3.08l1.08-.3Zm3.12,2.52c-.3-.66-1.02-1.6-1.68-2.26l.98-.46c.68.62,1.44,1.54,1.74,2.18l-1.04.54Z"/>
        <path class="cls-1" d="m896.3,70.35v1.5h-17.66v-1.5h5.94v-10.46h-5.44v-1.44h4.58c-.36-.96-1.14-2.4-1.92-3.44l1.26-.56c.86,1.04,1.68,2.44,2.02,3.38l-1.22.62h6.44l-.54-.26c.68-.98,1.58-2.58,2.06-3.72l1.48.62c-.66,1.14-1.42,2.42-2.1,3.36h4.62v1.44h-5.54v10.46h6.02Zm-14.9-8.58c1,1.98,1.8,4.6,2.02,6.32l-1.4.44c-.18-1.74-.98-4.36-1.92-6.36l1.3-.4Zm4.66,8.58h2.74v-10.46h-2.74v10.46Zm5.16-2.16c.78-1.72,1.7-4.54,2.2-6.56l1.5.48c-.72,2.16-1.66,4.84-2.46,6.54l-1.24-.46Z"/>
        <path class="cls-1" d="m898.15,72.19c.78-.82,1.16-2.26,1.32-3.64l1.06.24c-.2,1.54-.52,3.08-1.4,4.02l-.98-.62Zm.32-5.74c1.04-.04,2.32-.12,3.72-.18v-1.54h-3.3v-1.18h3.3v-1.32h-3.12v-7.02h7.88v7.02h-3.42v1.32h3.48v1.18h-3.48v1.46c1.24-.06,2.54-.14,3.84-.22v1.22c-3.2.22-6.5.42-8.8.54l-.1-1.28Zm1.76-5.32h2.12v-4.84h-2.12v4.84Zm1.02-4.04c.36.96.64,2.24.72,3.06l-.84.22c-.04-.84-.28-2.12-.62-3.1l.74-.18Zm.88,11.38c.32,1.1.54,2.5.56,3.42l-1.02.2c0-.92-.2-2.36-.5-3.48l.96-.14Zm1.9-.2c.46,1.02.92,2.34,1.04,3.24l-.98.28c-.12-.9-.56-2.24-1.02-3.28l.96-.24Zm1.7-11.98h-2.38v4.84h2.38v-4.84Zm-2.06,3.94c.32-.86.7-2.3.88-3.22l.86.34c-.36,1.04-.76,2.36-1.1,3.14l-.64-.26Zm2.2,7.6c.72.92,1.44,2.16,1.76,2.98l-1,.48c-.3-.84-1-2.12-1.68-3.04l.92-.42Zm6.48-7.6v3.68h3.48v8.78h-1.4v-.9h-5.04v1h-1.38v-8.88h2.88v-9.38h1.46v4.3h4.24v1.4h-4.24Zm2.08,5.06h-5.04v5.14h5.04v-5.14Z"/>
        <path class="cls-1" d="m923.14,64.11c-.32,1.76-.88,3.58-1.64,5,.4.22.88.62,1.68,1.1,1.42.86,3.22,1,5.58,1,2.58,0,5.82-.2,8.04-.42-.18.4-.4,1.1-.42,1.54-1.5.1-5.3.22-7.66.22-2.62,0-4.38-.22-5.86-1.1-.8-.48-1.52-1.16-1.98-1.16s-1.12,1.26-1.7,2.52l-1.02-1.34c.54-.78,1.1-1.48,1.6-1.92l-.04-.02c.86-1.14,1.48-2.86,1.86-4.44h-2.6c.56-1.18,1.22-2.88,1.74-4.46h-2.24v-1.34h4.16c-.5,1.44-1.14,3.12-1.7,4.5h1.1l.24-.06.86.38Zm-2.26-5.78c-.3-.88-.84-2.3-1.26-3.36l1.32-.36c.44,1.04,1.02,2.4,1.32,3.26l-1.38.46Zm15.5,8.78h-13.04v-1.18h3.46v-1.84h-2.7v-1.16h2.7v-1.44h1.38v1.44h3.24v-1.44h1.38v1.44h2.78v1.16h-2.78v1.84h3.58v1.18Zm-7.22-7.56c-.1.34-.22.82-.28,1.08-3.96.7-4.5.82-4.84,1.02-.08-.34-.36-.9-.52-1.18.22-.14.52-.38.52-1.14v-4.08h5.34v3.36h-4.14v1.52l3.92-.58Zm-.22,8.08c-1.08,1.02-2.72,2.04-4.1,2.72-.26-.26-.78-.74-1.12-.92,1.44-.58,2.96-1.4,3.9-2.24l1.32.44Zm-3.7-11.38v1.34h2.86v-1.34h-2.86Zm2.94,9.68h3.24v-1.84h-3.24v1.84Zm3.88-4.78c-1.36,0-1.7-.5-1.7-1.84v-4.04h5.44v3.36h-4.2v.72c0,.54.08.72.52.72h2.58c.38,0,.96-.02,1.26-.08.02.32.08.78.12,1.06-.26.08-.82.1-1.34.1h-2.68Zm2.6,9.14c-.86-.76-2.4-1.7-3.86-2.44l.96-.7c1.54.72,3.22,1.68,4.2,2.44l-1.3.7Zm-3.06-14.02v1.34h2.9v-1.34h-2.9Z"/>
        <path class="cls-1" d="m904.24,130.21c-.46,2.02-1.12,3.6-2.12,4.88,1.68.94,3.24,1.9,4.28,2.7l-.98,1.2c-1.04-.82-2.58-1.84-4.28-2.84-1.48,1.34-3.5,2.26-6.22,2.92-.1-.36-.48-1.02-.76-1.38,2.46-.48,4.3-1.22,5.66-2.32-1.34-.76-2.74-1.48-3.96-2.06.48-.84,1.04-1.94,1.56-3.1h-2.54l.16,1.12-2.54.82v5.18c0,.82-.2,1.22-.72,1.46-.5.22-1.3.26-2.62.26-.06-.38-.28-.96-.46-1.36.9.02,1.74.02,1.98.02.26,0,.38-.1.38-.38v-4.74c-.92.3-1.78.58-2.54.82l-.36-1.44c.8-.22,1.8-.5,2.9-.84v-4.96h-2.68v-1.38h2.68v-4h1.44v4h2.14v1.38h-2.14v4.52l2.1-.62v-1.2h3.38c.5-1.18.92-2.36,1.22-3.42l1.52.2c-.3,1.02-.72,2.12-1.14,3.22h3.34c.08-.52.14-1.08.18-1.66l1.58.08c-.06.54-.12,1.08-.2,1.58h2.18v1.34h-2.42Zm-7.68-3h-1.4v-3.88h4.9c-.2-.74-.48-1.62-.74-2.34l1.44-.26c.34.8.7,1.82.88,2.6h4.68v3.86h-1.44v-2.52h-8.32v2.54Zm2.44,3c-.4.94-.82,1.82-1.22,2.58,1,.48,2.02,1.02,3.04,1.58.88-1.08,1.48-2.46,1.86-4.16h-3.68Z"/>
        <path class="cls-1" d="m915.72,136.73c-2.44.6-5.04,1.18-6.92,1.62l-.32-1.34c.84-.16,1.96-.4,3.18-.62v-5.8h-2.96v-1.3h2.96v-2.16h-1.86v-.9c-.34.32-.64.62-.98.9-.1-.34-.44-1.14-.62-1.5,1.52-1.16,3.12-2.98,4.06-4.96l1.12.52c-.12.26-.26.54-.42.82,1.26.86,2.54,1.88,3.34,2.7l-.68,1.22c-.8-.86-2.08-1.94-3.32-2.82-.62.98-1.36,1.92-2.12,2.72h4.84v1.3h-2.1v2.16h2.72v1.3h-2.72v5.52l2.72-.56.08,1.18Zm-5.68-5.08c.36,1.16.7,2.68.8,3.66l-1.04.3c-.06-1-.38-2.54-.72-3.7l.96-.26Zm3.4,3.4c.34-.98.72-2.56.9-3.64l1.1.36c-.36,1.2-.74,2.68-1.12,3.6l-.88-.32Zm11.38-4.42c-.1,2.38-.22,4.64-.34,6.4h2.14v1.42h-10.98v-1.42h2.56c.22-1.76.48-4.04.7-6.4h-2.38v-1.42h2.52c.18-2.02.34-4.06.46-5.84h-2.36v-1.42h7.94c-.04,2.2-.12,4.76-.22,7.26h1.76v1.42h-1.8Zm-1.8,6.4c.14-1.78.28-4.04.4-6.4h-3.14c-.22,2.38-.46,4.66-.68,6.4h3.42Zm-2.12-13.66c-.14,1.82-.3,3.84-.48,5.84h3.06c.08-2,.14-4,.18-5.84h-2.76Z"/>
      </g>
    </g>
    <g>
      <path class="cls-4" d="m853.63,82.24h107.63c1.95,0,3.53,1.58,3.53,3.53v24.94c0,1.95-1.58,3.53-3.53,3.53h-107.63c-1.95,0-3.53-1.58-3.53-3.53v-24.94c0-1.95,1.58-3.53,3.53-3.53Z"/>
      <path class="cls-1" d="m961.26,82.69c1.7,0,3.08,1.38,3.08,3.08v24.94c0,1.7-1.38,3.08-3.08,3.08h-107.63c-1.7,0-3.08-1.38-3.08-3.08v-24.94c0-1.7,1.38-3.08,3.08-3.08h107.63m0-.9h-107.63c-2.19,0-3.97,1.79-3.97,3.97v24.94c0,2.19,1.79,3.97,3.97,3.97h107.63c2.19,0,3.97-1.79,3.97-3.97v-24.94c0-2.19-1.79-3.97-3.97-3.97h0Z"/>
    </g>
    <g>
      <path d="m890.89,104.98h-5.99v.64h-1.04v-7.07c-.31.3-.67.58-1.01.84-.12-.22-.42-.64-.64-.86v5.16h-2.61v1.2h-.95v-4.85c-.24.44-.49.89-.77,1.26-.12-.22-.43-.73-.64-.95,1.07-1.51,1.72-3.78,2.1-6.22h-1.75v-1.01h4.86v1.01h-2.04c-.19,1.14-.43,2.27-.74,3.29h2.53v1.04c1.36-.95,2.46-2.31,3.26-3.93h-1.73v1.59h-.96v-2.53h3.14c.19-.49.37-1.01.52-1.53l1.04.21c-.13.44-.28.9-.46,1.32h3.54v2.5h-.99v-1.56h-2.93c-.37.8-.79,1.54-1.26,2.22h1.93c-.19-.44-.43-.95-.64-1.36l.92-.37c.3.55.65,1.23.83,1.73h2.03v.93h-2.31v1.5h2.12v.86h-2.12v1.57h2.12v.86h-2.12v1.56h2.76v.95Zm-9.63-6.59h-1.64v4.33h1.64v-4.33Zm5.85-.7h-2.21v1.5h2.21v-1.5Zm0,2.36h-2.21v1.57h2.21v-1.57Zm-2.21,3.99h2.21v-1.56h-2.21v1.56Z"/>
      <path d="m898.21,95.45h-5.22v-.92h5.22v.92Zm-.36,1.96h-4.47v-.87h4.47v.87Zm-4.47,1.08h4.47v.89h-4.47v-.89Zm4.4,6.28h-3.47v.68h-.93v-4.96h4.4v4.28Zm-3.47-3.38v2.47h2.52v-2.47h-2.52Zm1.11-6.95c-.16-.53-.56-1.38-.92-2.01l.93-.33c.38.61.77,1.42.98,1.96l-.99.39Zm2.38,9.38c.5-.8.86-2.1,1.04-3.11l.79.24c-.19,1.07-.52,2.42-1.02,3.23l-.8-.36Zm5.01-10.21c-.27,2.67-1.01,4.87-3.73,6.1-.12-.25-.42-.62-.64-.79,1.32-.56,2.12-1.35,2.61-2.34-.55-.56-1.45-1.35-2.15-1.93l.58-.62c.62.49,1.39,1.13,1.96,1.61.19-.64.3-1.32.37-2.04h-3.05v-.95h7.22s-.01.33-.01.47c-.16,3.75-.33,5.08-.68,5.54-.25.3-.53.4-.93.43-.37.03-1.02.03-1.67,0-.03-.3-.13-.7-.31-.98.68.06,1.3.07,1.54.07s.36-.03.49-.18c.24-.27.38-1.42.5-4.42h-2.07Zm.49,10.79c.49,0,.58-.25.62-1.97.21.16.61.31.87.37-.1,2.02-.37,2.49-1.39,2.49h-1.93c-1.17,0-1.47-.3-1.47-1.32v-3.6h.96v3.6c0,.36.1.43.61.43h1.72Zm-1.41-5.1c.62.65,1.3,1.56,1.63,2.12l-.73.5c-.31-.58-.98-1.51-1.58-2.19l.68-.43Zm3.44.81c.53.98,1.1,2.27,1.3,3.05l-.84.33c-.21-.8-.73-2.12-1.25-3.11l.79-.27Z"/>
      <path d="m912.57,99.13c-.37,1.36-.87,2.83-1.47,3.93.25.18.58.42,1.04.7,1.04.64,2.36.74,4.09.74,1.88,0,4.28-.13,5.91-.31-.12.3-.31.81-.33,1.14-1.1.07-3.87.16-5.6.16-1.94,0-3.21-.16-4.31-.81-.59-.36-1.13-.86-1.47-.86s-.83.92-1.27,1.87l-.76-1.01c.61-.86,1.21-1.54,1.73-1.76.46-.83.89-1.96,1.16-2.99h-2.06c.42-.87.9-2.12,1.3-3.26h-1.96v-.99h3.32c-.37,1.05-.84,2.28-1.27,3.29h1.24l.18-.04.52.22Zm-2.24-4.16c-.16-.62-.52-1.63-.74-2.39l.98-.28c.27.74.61,1.72.8,2.33l-1.04.34Zm10.33,8.55c-.74-.87-2.16-2.27-3.41-3.45-.5,1.26-1.58,2.5-3.78,3.48-.15-.22-.49-.62-.74-.81,2.56-1.05,3.44-2.44,3.72-3.72h-3.76v-1.02h3.88c.01-.15.01-.3.01-.43v-1.7h-3.48v-1.02h5.01c.52-.8,1.11-1.93,1.42-2.76l1.11.36c-.43.79-.96,1.69-1.42,2.4h2.25v1.02h-3.78v1.72c0,.12,0,.27-.02.41h4.22v1.02h-4.34v.03c1.3,1.19,3.01,2.77,3.87,3.72l-.77.76Zm-5.42-8.73c-.25-.58-.8-1.57-1.24-2.3l.9-.36c.47.7,1.04,1.64,1.32,2.22l-.98.43Z"/>
      <path d="m936.67,99.44v6.15h-1.18v-.84h-10.43v-5.3h1.18v4.22h4v-5.16h-4.53v-5.07h1.14v3.99h3.39v-5.33h1.18v5.33h3.48v-4h1.19v5.08h-4.67v5.16h4.06v-4.22h1.18Z"/>
    </g>
  </g>
  <g>
    <g>
      <rect class="cls-5" x="271.63" width="185.11" height="165.8" rx="14.33" ry="14.33"/>
      <g>
        <path class="cls-1" d="m309.04,30.79h2.22v1.38h-2.22v3.92c.62-.2,1.28-.42,1.9-.62l.22,1.36-2.12.72v5.7c0,.82-.18,1.22-.66,1.46-.48.24-1.22.3-2.46.28-.06-.38-.24-.98-.44-1.4.84.04,1.62.04,1.84.02.24,0,.34-.08.34-.34v-5.28c-.88.28-1.7.56-2.44.78l-.38-1.42c.78-.22,1.74-.52,2.82-.86v-4.32h-2.54v-1.38h2.54v-4h1.38v4Zm12.22,7.5c-.46,1.46-1.16,2.66-2.12,3.64,1.52.66,2.88,1.36,3.88,1.98l-1.06,1.08c-.96-.64-2.36-1.4-3.96-2.14-1.44,1.02-3.4,1.7-5.98,2.16-.1-.42-.4-.94-.66-1.28,2.16-.32,3.84-.8,5.14-1.56-1.34-.58-2.72-1.12-3.96-1.56.5-.64,1.08-1.46,1.62-2.32h-2.78v-1.28h3.52c.4-.68.74-1.38,1-2l1.4.28c-.24.54-.54,1.14-.84,1.72h3.66c.08-.38.16-.76.24-1.18l1.44.26c-.06.32-.12.62-.18.92h1.78v1.28h-2.14Zm1.9-3.48h-11.54v-1.3h6.72c.52-.86,1.2-2.18,1.52-3.1l1.42.4c-.46.9-1,1.9-1.48,2.7h3.36v1.3Zm-.38-4.66h-10.66v-1.28h4.88c-.24-.62-.56-1.34-.88-1.9l1.6-.28c.38.68.8,1.52,1.06,2.18h4v1.28Zm-7.74,3.24c-.24-.66-.84-1.76-1.42-2.54l1.22-.48c.6.78,1.22,1.8,1.48,2.46l-1.28.56Zm.68,4.9c-.4.64-.8,1.26-1.16,1.78,1.02.36,2.1.78,3.18,1.24.88-.8,1.52-1.78,2-3.02h-4.02Z"/>
        <path class="cls-1" d="m330.72,27.09h1.46v17.98h-1.46v-5.54c-3.64,1.34-4.22,1.62-4.6,1.94-.1-.38-.4-1.04-.6-1.36.28-.18.68-.56.68-1.34v-9.78h1.46v10.14l3.06-1.02v-11.02Zm11.06,4.96c-.56,3.16-1.38,5.74-2.66,7.88,1.18,1.64,2.6,2.98,4.32,3.82-.34.3-.82.82-1.02,1.22-1.64-.9-2.98-2.2-4.12-3.78-1.2,1.58-2.7,2.86-4.58,3.88-.16-.32-.68-.92-.98-1.22,2-.98,3.54-2.3,4.72-3.96-1-1.68-1.8-3.6-2.4-5.7-.46.96-1,1.82-1.58,2.56-.2-.3-.76-.96-1.06-1.24,1.72-2.02,2.76-5.28,3.32-8.74l1.52.26c-.22,1.24-.52,2.46-.84,3.62h6.84v1.4h-1.48Zm-5.94.3c.58,2.24,1.36,4.36,2.42,6.2.96-1.8,1.6-3.98,2.02-6.5h-4.32l-.12.3Z"/>
        <path class="cls-1" d="m353.44,30.97h-6.22v3.22h-1.42v-4.28h7.64v-1.28h-6.78v-1.06h15.08v1.06h-6.86v1.28h7.78v4.28h-1.46v-3.22h-6.32v4.54h-1.44v-4.54Zm7.3,12.6c1.06,0,1.26-.34,1.36-2.32.34.22.88.4,1.3.48-.22,2.42-.66,3.04-2.56,3.04h-4.6c-2.22,0-2.86-.4-2.86-2v-.62h-4.42v1.04h-1.44v-6.94h13.48v5.9h-6.18v.62c0,.68.24.8,1.48.8h4.44Zm-13.16-9.16c1.26-.12,2.98-.38,4.74-.66l.06.94c-1.54.32-3.06.64-4.36.88l-.44-1.16Zm.96-3.04c1.28.2,2.94.66,3.84,1.04l-.44.92c-.88-.42-2.54-.9-3.86-1.16l.46-.8Zm.42,5.96v1.36h4.42v-1.36h-4.42Zm4.42,3.74v-1.38h-4.42v1.38h4.42Zm6.16-3.74h-4.72v1.36h4.72v-1.36Zm0,3.74v-1.38h-4.72v1.38h4.72Zm.84-5.44c-1.08-.38-3.1-.86-4.66-1.1l.36-.9c1.52.18,3.56.6,4.64.98l-.34,1.02Zm.02-3.52c-1.14.48-2.76.9-3.9,1.14l-.52-.78c1.14-.24,2.82-.86,3.78-1.2l.64.84Z"/>
        <path class="cls-1" d="m383.22,37.11h-8.16v5.96c0,1-.26,1.46-1.02,1.68-.74.26-2,.28-3.92.28-.1-.44-.38-1.1-.64-1.52,1.62.06,3.08.04,3.52.02.4-.02.54-.12.54-.48v-5.94h-8.24v-1.48h8.24v-2.88c1.66-.76,3.6-2,5-3.16h-11.26v-1.46h12.88l.32-.08,1.12.84c-1.7,1.68-4.26,3.46-6.54,4.62v2.12h8.16v1.48Z"/>
        <path class="cls-1" d="m390.72,27.25c-.46,1.34-1.04,2.68-1.68,3.94v13.92h-1.38v-11.52c-.6.96-1.26,1.82-1.9,2.58-.14-.32-.56-1.04-.82-1.38,1.8-1.94,3.44-4.92,4.46-7.94l1.32.4Zm12.4,2.82v1.26h-12.66v-1.26h12.66Zm-11.5,8.56h10.12v6.36h-1.32v-.72h-7.5v.78h-1.3v-6.42Zm9.92-4.48h-9.64v-1.22h9.64v1.22Zm-9.64,1.58h9.64v1.22h-9.64v-1.22Zm1.02,4.14v3.16h7.5v-3.16h-7.5Zm3.52-9.92c-.26-.7-.88-1.84-1.38-2.66l1.26-.52c.58.84,1.18,1.9,1.46,2.6l-1.34.58Z"/>
        <path class="cls-1" d="m408.12,29.71c-.64.98-1.34,1.88-2.04,2.58-.26-.26-.8-.78-1.14-.98,1.3-1.14,2.46-2.86,3.14-4.6l1.4.38c-.18.46-.4.9-.64,1.34h5.16v1.28h-5.88Zm2.26,7.1c.82.72,2.72,2.5,3.2,2.98l-.96,1.16c-.44-.58-1.42-1.7-2.24-2.6v6.7h-1.42v-6.66c-.88,1.72-2.02,3.4-3.06,4.52-.2-.36-.6-.84-.94-1.14,1.34-1.26,2.82-3.58,3.7-5.7h-3.18v-1.38h3.48v-2.26h1.42v2.26h3.16v1.38h-3.16v.74Zm.94-4.14c-.42-.6-1.28-1.52-2-2.18l.9-.78c.74.6,1.62,1.5,2.06,2.08l-.96.88Zm11.84-4.2v1.28h-3.9c.72.66,1.6,1.54,2.06,2.1l-.94.92c-.46-.64-1.4-1.64-2.16-2.36l.76-.66h-2.32c-.58.96-1.22,1.82-1.88,2.5-.28-.24-.92-.68-1.26-.86,1.28-1.12,2.34-2.86,2.92-4.68l1.44.32c-.14.5-.34.96-.56,1.44h5.84Zm-9,4.68h8.24v11.76h-1.48v-.74h-5.32v.86h-1.44v-11.88Zm1.44,1.34v1.98h5.32v-1.98h-5.32Zm5.32,5.18v-2.04h-5.32v2.04h5.32Zm0,3.24v-2.08h-5.32v2.08h5.32Z"/>
        <path class="cls-1" d="m312.12,58.96h-7.04v-1.24h7.04v1.24Zm-.48,2.64h-6.04v-1.18h6.04v1.18Zm-6.04,1.46h6.04v1.2h-6.04v-1.2Zm5.94,8.48h-4.68v.92h-1.26v-6.7h5.94v5.78Zm-4.68-4.56v3.34h3.4v-3.34h-3.4Zm1.5-9.38c-.22-.72-.76-1.86-1.24-2.72l1.26-.44c.52.82,1.04,1.92,1.32,2.64l-1.34.52Zm3.22,12.66c.68-1.08,1.16-2.84,1.4-4.2l1.06.32c-.26,1.44-.7,3.26-1.38,4.36l-1.08-.48Zm6.76-13.78c-.36,3.6-1.36,6.58-5.04,8.24-.16-.34-.56-.84-.86-1.06,1.78-.76,2.86-1.82,3.52-3.16-.74-.76-1.96-1.82-2.9-2.6l.78-.84c.84.66,1.88,1.52,2.64,2.18.26-.86.4-1.78.5-2.76h-4.12v-1.28h9.74s-.02.44-.02.64c-.22,5.06-.44,6.86-.92,7.48-.34.4-.72.54-1.26.58-.5.04-1.38.04-2.26,0-.04-.4-.18-.94-.42-1.32.92.08,1.76.1,2.08.1s.48-.04.66-.24c.32-.36.52-1.92.68-5.96h-2.8Zm.66,14.56c.66,0,.78-.34.84-2.66.28.22.82.42,1.18.5-.14,2.72-.5,3.36-1.88,3.36h-2.6c-1.58,0-1.98-.4-1.98-1.78v-4.86h1.3v4.86c0,.48.14.58.82.58h2.32Zm-1.9-6.88c.84.88,1.76,2.1,2.2,2.86l-.98.68c-.42-.78-1.32-2.04-2.14-2.96l.92-.58Zm4.64,1.1c.72,1.32,1.48,3.06,1.76,4.12l-1.14.44c-.28-1.08-.98-2.86-1.68-4.2l1.06-.36Z"/>
        <path class="cls-1" d="m331.76,59.02h-6.66v-1.22h6.66v1.22Zm-.48,12.44h-4.26v.94h-1.18v-6.72h5.44v5.78Zm-.1-9.86h-5.32v-1.18h5.32v1.18Zm-5.32,1.42h5.32v1.18h-5.32v-1.18Zm1.16,3.9v3.3h3.06v-3.3h-3.06Zm1.58-9.34c-.28-.72-.96-1.84-1.5-2.68l1.02-.64c.58.8,1.24,1.86,1.56,2.58l-1.08.74Zm6.38,2.9c-.72.98-1.56,1.78-2.44,2.36-.2-.28-.62-.76-.9-1,.84-.5,1.66-1.3,2.34-2.26-.48-.44-1.22-1.02-1.84-1.4l.82-.96c.58.34,1.24.82,1.72,1.22.38-.64.68-1.36.92-2.08h-2.92v-1.22h3.42l.26-.04.86.3c-.4,1.8-1.08,3.4-1.96,4.68h4.76c-1-1.48-1.76-3.28-2.26-5.22l1.24-.24c.16.58.34,1.14.56,1.7.54-.46,1.16-1,1.52-1.4l.9.82c-.6.58-1.34,1.18-1.98,1.62.2.4.4.8.64,1.16.6-.4,1.3-.96,1.72-1.34l.9.82c-.62.52-1.38,1.02-2.04,1.4.7.92,1.48,1.68,2.38,2.22-.34.22-.78.72-1,1.08-.92-.62-1.76-1.44-2.46-2.46v1.06h-5.16v-.82Zm6.02,7.48c-.46.98-1.04,2.12-1.54,2.98h3.76v1.22h-11.26v-1.22h6.1c.52-.94,1.18-2.36,1.5-3.36l1.44.38Zm.46-.56h-7.84v-4.74h7.84v4.74Zm-6.04,3.5c-.12-.76-.6-1.98-1.16-2.9l1.3-.34c.56.9,1.06,2.08,1.2,2.84l-1.34.4Zm4.7-7.06h-5.22v2.38h5.22v-2.38Z"/>
        <path class="cls-1" d="m350.72,54.88c-.46,1.34-1.04,2.68-1.68,3.94v13.92h-1.38v-11.52c-.6.96-1.26,1.82-1.9,2.58-.14-.32-.56-1.04-.82-1.38,1.8-1.94,3.44-4.92,4.46-7.94l1.32.4Zm12.4,2.82v1.26h-12.66v-1.26h12.66Zm-11.5,8.56h10.12v6.36h-1.32v-.72h-7.5v.78h-1.3v-6.42Zm9.92-4.48h-9.64v-1.22h9.64v1.22Zm-9.64,1.58h9.64v1.22h-9.64v-1.22Zm1.02,4.14v3.16h7.5v-3.16h-7.5Zm3.52-9.92c-.26-.7-.88-1.84-1.38-2.66l1.26-.52c.58.84,1.18,1.9,1.46,2.6l-1.34.58Z"/>
        <path class="cls-1" d="m383.04,70.31v1.5h-17.66v-1.5h5.94v-10.46h-5.44v-1.44h4.58c-.36-.96-1.14-2.4-1.92-3.44l1.26-.56c.86,1.04,1.68,2.44,2.02,3.38l-1.22.62h6.44l-.54-.26c.68-.98,1.58-2.58,2.06-3.72l1.48.62c-.66,1.14-1.42,2.42-2.1,3.36h4.62v1.44h-5.54v10.46h6.02Zm-14.9-8.58c1,1.98,1.8,4.6,2.02,6.32l-1.4.44c-.18-1.74-.98-4.36-1.92-6.36l1.3-.4Zm4.66,8.58h2.74v-10.46h-2.74v10.46Zm5.16-2.16c.78-1.72,1.7-4.54,2.2-6.56l1.5.48c-.72,2.16-1.66,4.84-2.46,6.54l-1.24-.46Z"/>
        <path class="cls-1" d="m384.9,72.15c.78-.82,1.16-2.26,1.32-3.64l1.06.24c-.2,1.54-.52,3.08-1.4,4.02l-.98-.62Zm.32-5.74c1.04-.04,2.32-.12,3.72-.18v-1.54h-3.3v-1.18h3.3v-1.32h-3.12v-7.02h7.88v7.02h-3.42v1.32h3.48v1.18h-3.48v1.46c1.24-.06,2.54-.14,3.84-.22v1.22c-3.2.22-6.5.42-8.8.54l-.1-1.28Zm1.76-5.32h2.12v-4.84h-2.12v4.84Zm1.02-4.04c.36.96.64,2.24.72,3.06l-.84.22c-.04-.84-.28-2.12-.62-3.1l.74-.18Zm.88,11.38c.32,1.1.54,2.5.56,3.42l-1.02.2c0-.92-.2-2.36-.5-3.48l.96-.14Zm1.9-.2c.46,1.02.92,2.34,1.04,3.24l-.98.28c-.12-.9-.56-2.24-1.02-3.28l.96-.24Zm1.7-11.98h-2.38v4.84h2.38v-4.84Zm-2.06,3.94c.32-.86.7-2.3.88-3.22l.86.34c-.36,1.04-.76,2.36-1.1,3.14l-.64-.26Zm2.2,7.6c.72.92,1.44,2.16,1.76,2.98l-1,.48c-.3-.84-1-2.12-1.68-3.04l.92-.42Zm6.48-7.6v3.68h3.48v8.78h-1.4v-.9h-5.04v1h-1.38v-8.88h2.88v-9.38h1.46v4.3h4.24v1.4h-4.24Zm2.08,5.06h-5.04v5.14h5.04v-5.14Z"/>
        <path class="cls-1" d="m409.88,64.07c-.32,1.76-.88,3.58-1.64,5,.4.22.88.62,1.68,1.1,1.42.86,3.22,1,5.58,1,2.58,0,5.82-.2,8.04-.42-.18.4-.4,1.1-.42,1.54-1.5.1-5.3.22-7.66.22-2.62,0-4.38-.22-5.86-1.1-.8-.48-1.52-1.16-1.98-1.16s-1.12,1.26-1.7,2.52l-1.02-1.34c.54-.78,1.1-1.48,1.6-1.92l-.04-.02c.86-1.14,1.48-2.86,1.86-4.44h-2.6c.56-1.18,1.22-2.88,1.74-4.46h-2.24v-1.34h4.16c-.5,1.44-1.14,3.12-1.7,4.5h1.1l.24-.06.86.38Zm-2.26-5.78c-.3-.88-.84-2.3-1.26-3.36l1.32-.36c.44,1.04,1.02,2.4,1.32,3.26l-1.38.46Zm15.5,8.78h-13.04v-1.18h3.46v-1.84h-2.7v-1.16h2.7v-1.44h1.38v1.44h3.24v-1.44h1.38v1.44h2.78v1.16h-2.78v1.84h3.58v1.18Zm-7.22-7.56c-.1.34-.22.82-.28,1.08-3.96.7-4.5.82-4.84,1.02-.08-.34-.36-.9-.52-1.18.22-.14.52-.38.52-1.14v-4.08h5.34v3.36h-4.14v1.52l3.92-.58Zm-.22,8.08c-1.08,1.02-2.72,2.04-4.1,2.72-.26-.26-.78-.74-1.12-.92,1.44-.58,2.96-1.4,3.9-2.24l1.32.44Zm-3.7-11.38v1.34h2.86v-1.34h-2.86Zm2.94,9.68h3.24v-1.84h-3.24v1.84Zm3.88-4.78c-1.36,0-1.7-.5-1.7-1.84v-4.04h5.44v3.36h-4.2v.72c0,.54.08.72.52.72h2.58c.38,0,.96-.02,1.26-.08.02.32.08.78.12,1.06-.26.08-.82.1-1.34.1h-2.68Zm2.6,9.14c-.86-.76-2.4-1.7-3.86-2.44l.96-.7c1.54.72,3.22,1.68,4.2,2.44l-1.3.7Zm-3.06-14.02v1.34h2.9v-1.34h-2.9Z"/>
        <path class="cls-1" d="m360.98,130.17c-.46,2.02-1.12,3.6-2.12,4.88,1.68.94,3.24,1.9,4.28,2.7l-.98,1.2c-1.04-.82-2.58-1.84-4.28-2.84-1.48,1.34-3.5,2.26-6.22,2.92-.1-.36-.48-1.02-.76-1.38,2.46-.48,4.3-1.22,5.66-2.32-1.34-.76-2.74-1.48-3.96-2.06.48-.84,1.04-1.94,1.56-3.1h-2.54l.16,1.12-2.54.82v5.18c0,.82-.2,1.22-.72,1.46-.5.22-1.3.26-2.62.26-.06-.38-.28-.96-.46-1.36.9.02,1.74.02,1.98.02.26,0,.38-.1.38-.38v-4.74c-.92.3-1.78.58-2.54.82l-.36-1.44c.8-.22,1.8-.5,2.9-.84v-4.96h-2.68v-1.38h2.68v-4h1.44v4h2.14v1.38h-2.14v4.52l2.1-.62v-1.2h3.38c.5-1.18.92-2.36,1.22-3.42l1.52.2c-.3,1.02-.72,2.12-1.14,3.22h3.34c.08-.52.14-1.08.18-1.66l1.58.08c-.06.54-.12,1.08-.2,1.58h2.18v1.34h-2.42Zm-7.68-3h-1.4v-3.88h4.9c-.2-.74-.48-1.62-.74-2.34l1.44-.26c.34.8.7,1.82.88,2.6h4.68v3.86h-1.44v-2.52h-8.32v2.54Zm2.44,3c-.4.94-.82,1.82-1.22,2.58,1,.48,2.02,1.02,3.04,1.58.88-1.08,1.48-2.46,1.86-4.16h-3.68Z"/>
        <path class="cls-1" d="m372.46,136.69c-2.44.6-5.04,1.18-6.92,1.62l-.32-1.34c.84-.16,1.96-.4,3.18-.62v-5.8h-2.96v-1.3h2.96v-2.16h-1.86v-.9c-.34.32-.64.62-.98.9-.1-.34-.44-1.14-.62-1.5,1.52-1.16,3.12-2.98,4.06-4.96l1.12.52c-.12.26-.26.54-.42.82,1.26.86,2.54,1.88,3.34,2.7l-.68,1.22c-.8-.86-2.08-1.94-3.32-2.82-.62.98-1.36,1.92-2.12,2.72h4.84v1.3h-2.1v2.16h2.72v1.3h-2.72v5.52l2.72-.56.08,1.18Zm-5.68-5.08c.36,1.16.7,2.68.8,3.66l-1.04.3c-.06-1-.38-2.54-.72-3.7l.96-.26Zm3.4,3.4c.34-.98.72-2.56.9-3.64l1.1.36c-.36,1.2-.74,2.68-1.12,3.6l-.88-.32Zm11.38-4.42c-.1,2.38-.22,4.64-.34,6.4h2.14v1.42h-10.98v-1.42h2.56c.22-1.76.48-4.04.7-6.4h-2.38v-1.42h2.52c.18-2.02.34-4.06.46-5.84h-2.36v-1.42h7.94c-.04,2.2-.12,4.76-.22,7.26h1.76v1.42h-1.8Zm-1.8,6.4c.14-1.78.28-4.04.4-6.4h-3.14c-.22,2.38-.46,4.66-.68,6.4h3.42Zm-2.12-13.66c-.14,1.82-.3,3.84-.48,5.84h3.06c.08-2,.14-4,.18-5.84h-2.76Z"/>
      </g>
    </g>
    <g>
      <rect class="cls-6" x="306.84" y="82.24" width="114.68" height="32" rx="3.53" ry="3.53"/>
      <path class="cls-1" d="m418,82.69c1.7,0,3.08,1.38,3.08,3.08v24.94c0,1.7-1.38,3.08-3.08,3.08h-107.63c-1.7,0-3.08-1.38-3.08-3.08v-24.94c0-1.7,1.38-3.08,3.08-3.08h107.63m0-.9h-107.63c-2.19,0-3.97,1.79-3.97,3.97v24.94c0,2.19,1.79,3.97,3.97,3.97h107.63c2.19,0,3.97-1.79,3.97-3.97v-24.94c0-2.19-1.79-3.97-3.97-3.97h0Z"/>
    </g>
    <g>
      <path class="cls-1" d="m339.07,95.39h-5.28v-.93h5.28v.93Zm-.36,1.98h-4.53v-.88h4.53v.88Zm-4.53,1.1h4.53v.9h-4.53v-.9Zm4.45,6.36h-3.51v.69h-.94v-5.02h4.45v4.33Zm-3.51-3.42v2.5h2.55v-2.5h-2.55Zm1.12-7.04c-.17-.54-.57-1.39-.93-2.04l.94-.33c.39.61.78,1.44.99,1.98l-1,.39Zm2.42,9.49c.51-.81.87-2.13,1.05-3.15l.79.24c-.19,1.08-.52,2.44-1.04,3.27l-.81-.36Zm5.07-10.33c-.27,2.7-1.02,4.94-3.78,6.18-.12-.25-.42-.63-.65-.79,1.33-.57,2.15-1.36,2.64-2.37-.56-.57-1.47-1.37-2.17-1.95l.58-.63c.63.5,1.41,1.14,1.98,1.63.19-.65.3-1.33.38-2.07h-3.09v-.96h7.3s-.02.33-.02.48c-.17,3.79-.33,5.15-.69,5.61-.25.3-.54.4-.95.44-.38.03-1.03.03-1.69,0-.03-.3-.13-.71-.31-.99.69.06,1.32.08,1.56.08s.36-.03.5-.18c.24-.27.39-1.44.51-4.47h-2.1Zm.5,10.92c.5,0,.58-.25.63-1.99.21.17.62.31.89.38-.1,2.04-.38,2.52-1.41,2.52h-1.95c-1.19,0-1.48-.3-1.48-1.33v-3.65h.97v3.65c0,.36.1.43.62.43h1.74Zm-1.42-5.16c.63.66,1.32,1.58,1.65,2.15l-.73.51c-.31-.58-.99-1.53-1.6-2.22l.69-.44Zm3.48.83c.54.99,1.11,2.29,1.32,3.09l-.85.33c-.21-.81-.73-2.15-1.26-3.15l.79-.27Z"/>
      <path class="cls-1" d="m354.55,95.44h-4.99v-.91h4.99v.91Zm-.36,9.33h-3.19v.71h-.89v-5.04h4.08v4.33Zm-.08-7.39h-3.99v-.88h3.99v.88Zm-3.99,1.06h3.99v.89h-3.99v-.89Zm.87,2.92v2.48h2.29v-2.48h-2.29Zm1.18-7c-.21-.54-.72-1.38-1.12-2.01l.77-.48c.44.6.93,1.4,1.17,1.94l-.81.56Zm4.79,2.17c-.54.73-1.17,1.33-1.83,1.77-.15-.21-.46-.57-.67-.75.63-.38,1.24-.98,1.75-1.69-.36-.33-.92-.77-1.38-1.05l.61-.72c.44.25.93.61,1.29.92.29-.48.51-1.02.69-1.56h-2.19v-.92h2.56l.19-.03.65.22c-.3,1.35-.81,2.55-1.47,3.51h3.57c-.75-1.11-1.32-2.46-1.69-3.92l.93-.18c.12.44.25.85.42,1.27.41-.34.87-.75,1.14-1.05l.67.62c-.45.43-1,.88-1.48,1.21.15.3.3.6.48.87.45-.3.98-.72,1.29-1l.67.62c-.46.39-1.03.76-1.53,1.05.52.69,1.11,1.26,1.78,1.67-.25.17-.58.54-.75.81-.69-.47-1.32-1.08-1.85-1.85v.79h-3.87v-.61Zm4.51,5.61c-.34.73-.78,1.59-1.15,2.23h2.82v.92h-8.44v-.92h4.57c.39-.71.89-1.77,1.12-2.52l1.08.29Zm.35-.42h-5.88v-3.56h5.88v3.56Zm-4.53,2.62c-.09-.57-.45-1.48-.87-2.17l.98-.25c.42.67.79,1.56.9,2.13l-1,.3Zm3.52-5.29h-3.91v1.78h3.91v-1.78Z"/>
      <path class="cls-1" d="m369.52,92.33c-.35,1-.78,2.01-1.26,2.95v10.44h-1.03v-8.64c-.45.72-.95,1.37-1.43,1.94-.1-.24-.42-.78-.61-1.03,1.35-1.46,2.58-3.69,3.34-5.96l.99.3Zm9.3,2.11v.94h-9.49v-.94h9.49Zm-8.62,6.42h7.59v4.77h-.99v-.54h-5.62v.58h-.98v-4.81Zm7.44-3.36h-7.23v-.92h7.23v.92Zm-7.23,1.18h7.23v.92h-7.23v-.92Zm.77,3.1v2.37h5.62v-2.37h-5.62Zm2.64-7.44c-.19-.52-.66-1.38-1.03-2l.94-.39c.44.63.88,1.43,1.09,1.95l-1,.44Z"/>
      <path class="cls-1" d="m383.32,94.18c-.48.73-1,1.41-1.53,1.94-.2-.2-.6-.58-.85-.73.98-.85,1.84-2.15,2.35-3.45l1.05.29c-.13.34-.3.67-.48,1h3.87v.96h-4.41Zm1.69,5.32c.62.54,2.04,1.88,2.4,2.23l-.72.87c-.33-.44-1.06-1.27-1.68-1.95v5.02h-1.06v-4.99c-.66,1.29-1.51,2.55-2.29,3.39-.15-.27-.45-.63-.7-.85,1-.94,2.11-2.68,2.77-4.27h-2.39v-1.04h2.61v-1.69h1.06v1.69h2.37v1.04h-2.37v.55Zm.71-3.1c-.31-.45-.96-1.14-1.5-1.63l.68-.58c.55.45,1.21,1.12,1.54,1.56l-.72.66Zm8.88-3.15v.96h-2.92c.54.5,1.2,1.16,1.54,1.58l-.71.69c-.35-.48-1.05-1.23-1.62-1.77l.57-.5h-1.74c-.44.72-.92,1.37-1.41,1.88-.21-.18-.69-.51-.94-.65.96-.84,1.75-2.14,2.19-3.51l1.08.24c-.1.38-.25.72-.42,1.08h4.38Zm-6.75,3.51h6.18v8.82h-1.11v-.55h-3.99v.65h-1.08v-8.91Zm1.08,1v1.48h3.99v-1.48h-3.99Zm3.99,3.88v-1.53h-3.99v1.53h3.99Zm0,2.43v-1.56h-3.99v1.56h3.99Z"/>
    </g>
  </g>
  <path class="cls-2" d="m255.3,80.38l-30.92-24.72c-1.39-.87-3.37-.04-3.37,1.41v10.77c0,.97-.94,1.76-2.11,1.76h-16.19c-1.16,0-2.11.79-2.11,1.76v20.84c0,.97.94,1.76,2.11,1.76h16.19c1.16,0,2.11.79,2.11,1.76v10.77c0,1.45,1.98,2.28,3.37,1.41l30.92-24.72c1.12-.71,1.12-2.12,0-2.82Z"/>
  <path class="cls-2" d="m526.92,80.38l-30.92-24.72c-1.39-.87-3.37-.04-3.37,1.41v10.77c0,.97-.94,1.76-2.11,1.76h-16.19c-1.16,0-2.11.79-2.11,1.76v20.84c0,.97.94,1.76,2.11,1.76h16.19c1.16,0,2.11.79,2.11,1.76v10.77c0,1.45,1.98,2.28,3.37,1.41l30.92-24.72c1.12-.71,1.12-2.12,0-2.82Z"/>
  <path class="cls-2" d="m798.55,80.38l-30.92-24.72c-1.39-.87-3.37-.04-3.37,1.41v10.77c0,.97-.94,1.76-2.11,1.76h-16.19c-1.16,0-2.11.79-2.11,1.76v20.84c0,.97.94,1.76,2.11,1.76h16.19c1.16,0,2.11.79,2.11,1.76v10.77c0,1.45,1.98,2.28,3.37,1.41l30.92-24.72c1.12-.71,1.12-2.12,0-2.82Z"/>
  <path class="cls-2" d="m125.48,383.47l-30.25-25.31c-1.36-.89-3.3-.04-3.3,1.44v50.61c0,1.49,1.94,2.34,3.3,1.44l30.25-25.31c1.1-.72,1.1-2.17,0-2.89Z"/>
  <rect class="cls-2" x="401.51" y="195.7" width="196.98" height="77.99" rx="39" ry="39"/>
  <g>
    <path class="cls-1" d="m476.06,235.46c-1.04,2.12-2.62,3.76-4.58,5.02,2.12.96,4.62,1.6,7.4,1.94-.32.32-.72.98-.9,1.38-3.02-.42-5.7-1.24-7.98-2.48-2.4,1.24-5.18,2.02-8.06,2.48-.16-.36-.58-1.02-.88-1.32,2.72-.38,5.32-1,7.52-2-1.64-1.12-3.02-2.5-4.04-4.12l.2-.08h-.86v-1.38h10.9l.3-.06.98.62Zm-13.18-.08h-1.4v-4.06h3.18c-.24-.72-.8-1.82-1.32-2.64l1.28-.36c.58.82,1.18,1.9,1.42,2.62l-1.18.38h8.7c.66-1,1.42-2.38,1.86-3.4l1.5.46c-.54.98-1.24,2.06-1.84,2.94h3.42v4.06h-1.46v-2.74h-14.16v2.74Zm14.5-8.66c-4,.84-10.18,1.34-15.36,1.54-.02-.38-.2-.92-.34-1.26,5.12-.22,11.24-.74,14.66-1.48l1.04,1.2Zm-11.26,9.56c.96,1.38,2.3,2.52,3.92,3.44,1.56-.9,2.88-2.02,3.8-3.44h-7.72Zm3.5-5.08c-.12-.78-.54-2.02-1-2.94l1.34-.3c.48.92.92,2.14,1.06,2.9l-1.4.34Z"/>
    <path class="cls-1" d="m487.3,239.73c-2.14.72-4.42,1.5-6.2,2.08l-.34-1.5c.74-.22,1.66-.5,2.68-.84v-5.38h-2.28v-1.4h2.28v-4.34h-2.48v-1.4h6.2v1.4h-2.3v4.34h2.02v1.4h-2.02v4.94l2.18-.72.26,1.42Zm11.94,2.12v1.36h-12.88v-1.36h6.08v-2.74h-4.54v-1.36h4.54v-2.34h-4.3v-8.9h10.16v8.9h-4.36v2.34h4.66v1.36h-4.66v2.74h5.3Zm-9.74-11.52h3.04v-2.52h-3.04v2.52Zm0,3.78h3.04v-2.56h-3.04v2.56Zm7.38-6.3h-3.06v2.52h3.06v-2.52Zm0,3.74h-3.06v2.56h3.06v-2.56Z"/>
    <path class="cls-1" d="m518.92,237.71v1.26h-8.26v4.88h-1.46v-4.88h-8.1v-1.26h8.1v-1.66h1.46v1.66h8.26Zm-1.9-.88c-1.62-.62-3.88-1.22-6.5-1.82-2.16.92-5,1.38-8.68,1.62-.14-.44-.34-.92-.56-1.28,2.74-.12,4.96-.38,6.76-.84-1.36-.26-2.76-.5-4.22-.72.62-.56,1.3-1.22,1.98-1.94h-4.5v-1.22h5.58c.6-.7,1.14-1.42,1.56-2.06l1.44.44c-.36.52-.8,1.08-1.26,1.62h4.92c.24-.42.44-.88.6-1.38l1.44.34c-.12.38-.24.7-.4,1.04h3.54v1.22h-4.2c-.62.94-1.4,1.7-2.36,2.32,2.44.54,4.64,1.12,6.3,1.68l-1.44.98Zm-9.46,3.06c-1.22,1.36-3.24,2.6-5,3.38-.26-.28-.86-.8-1.22-1.02,1.8-.66,3.7-1.7,4.76-2.84l1.46.48Zm-4.52-9.92h-1.4v-2.86h7.7c-.24-.42-.5-.82-.72-1.18l1.48-.36c.3.44.72,1.04,1,1.54h7.32v2.86h-1.44v-1.6h-13.94v1.6Zm4.46,1.88c-.42.44-.84.84-1.22,1.22,1.32.2,2.62.44,3.9.7,1.04-.52,1.9-1.14,2.56-1.92h-5.24Zm5.74,7.36c1.8.8,4.12,2.12,5.3,3.08l-1.08,1.08c-1.12-.98-3.4-2.36-5.22-3.22l1-.94Z"/>
    <path class="cls-1" d="m526.78,226.1c-.56,1.46-1.22,2.94-1.98,4.32v13.4h-1.42v-11.1c-.58.86-1.22,1.64-1.84,2.34-.14-.36-.58-1.12-.84-1.46,1.86-1.94,3.62-4.92,4.68-7.94l1.4.44Zm12.16,10.86h-5.42v6.9h-1.48v-6.9h-5.7v-1.46h5.7v-4.38h-3.14c-.42,1.16-.9,2.2-1.44,3.04-.28-.22-.9-.58-1.28-.76,1.18-1.64,2-4.24,2.46-6.82l1.4.3c-.18.94-.4,1.88-.66,2.78h2.66v-3.82h1.48v3.82h4.56v1.46h-4.56v4.38h5.42v1.46Z"/>
  </g>
  <g>
    <g>
      <rect class="cls-4" x="137.77" y="303.59" width="185.11" height="165.8" rx="14.33" ry="14.33"/>
      <g>
        <path class="cls-1" d="m176.64,375.77c-1.2,1.58-2.96,3.2-4.46,4.24-.28-.26-.9-.74-1.28-.96,1.56-.96,3.24-2.4,4.26-3.8l1.48.52Zm3.68-1.62v4.86c0,.84-.18,1.26-.84,1.48-.62.24-1.64.26-3.1.26-.06-.42-.32-1.06-.56-1.46,1.2.06,2.28.06,2.6.02.34-.02.4-.08.4-.32v-4.72c-5.44.4-6.24.52-6.8.74-.06-.32-.28-1.02-.44-1.42.66-.08,1.54-.4,2.74-.96.76-.32,2.46-1.18,4.4-2.3-4.5.26-5.18.36-5.6.5-.08-.28-.28-1.02-.46-1.4.46-.04.96-.26,1.62-.62.72-.34,2.94-1.66,4.62-3.14-2.38.62-4.9,1.14-7.28,1.56-.08-.38-.26-.9-.44-1.24,4.48-.82,9.6-2.06,12.44-3.4l1.1,1.16c-1.6.72-3.6,1.34-5.76,1.92l1.26.8c-1.34,1.04-2.8,2-4.22,2.76l4.9-.26c.8-.48,1.56-1.02,2.28-1.56l1.16.98c-2.72,1.92-5.54,3.48-8.32,4.74l8.52-.56c-.64-.7-1.3-1.38-1.9-1.96l1.2-.62c1.52,1.36,3.24,3.2,4.08,4.38l-1.26.78c-.28-.4-.66-.88-1.06-1.4l-5.28.4Zm2.96.92c1.58,1.16,3.56,2.84,4.58,3.9l-1.24.88c-.96-1.06-2.9-2.8-4.5-4.02l1.16-.76Z"/>
        <path class="cls-1" d="m192.24,375.55c-.2,1.7-.58,3.58-1,4.82-.24-.14-.84-.34-1.14-.44.46-1.24.76-3,.96-4.6l1.18.22Zm4.08-1.16c-.06-.28-.14-.64-.24-1.02-4.4.74-5,.88-5.38,1.1-.06-.3-.3-1-.46-1.38.42-.1.88-.6,1.48-1.34.32-.34.94-1.18,1.66-2.22-2.12.24-2.54.32-2.8.46-.08-.3-.32-1-.46-1.36.32-.08.68-.5,1.1-1.1.44-.58,1.86-2.88,2.7-5.04l1.36.58c-.9,1.92-2.06,3.88-3.2,5.42l2.1-.2c.56-.9,1.12-1.88,1.6-2.84l1.26.74c-1.3,2.36-2.9,4.7-4.56,6.56l3.26-.46c-.24-.66-.48-1.32-.76-1.9l1.08-.4c.62,1.28,1.2,2.94,1.42,3.96l-1.16.44Zm-2.02.84c.24,1.34.48,3.06.54,4.2l-1.16.28c-.04-1.14-.26-2.9-.5-4.24l1.12-.24Zm2.14,3.46c-.18-.96-.64-2.48-1.06-3.6l1.04-.36c.46,1.16.92,2.62,1.12,3.6l-1.1.36Zm10.24.46c.42,0,.52-.38.56-2.64.32.26.88.46,1.3.58-.14,2.68-.5,3.38-1.7,3.38h-1.72c-1.4,0-1.74-.44-1.74-1.92v-7l-1.88.22c-.16,4.72-.76,7.5-4.26,9.14-.18-.38-.58-.9-.92-1.16,3.14-1.34,3.62-3.68,3.74-7.8-1.32.18-1.68.28-1.96.4-.1-.32-.32-1.06-.52-1.48.4-.1.84-.64,1.38-1.46.32-.44.98-1.54,1.72-2.92h-2.96v-1.4h3.64c.4-.82.78-1.68,1.1-2.52l1.6.48c-.3.68-.64,1.38-.98,2.04h5.14v1.4h-5.86c-.82,1.5-1.68,2.92-2.56,4.12l5.88-.58c-.44-.76-.9-1.54-1.34-2.2l1.22-.54c1.02,1.5,2.28,3.54,2.8,4.8l-1.32.64c-.18-.42-.42-.96-.72-1.52l-1.52.18v7.14c0,.52.06.62.5.62h1.38Z"/>
        <path class="cls-1" d="m216.84,363.61c-1.12,3.4-3.1,6.24-5.44,8.12-.26-.3-.88-.86-1.24-1.1,2.36-1.64,4.18-4.28,5.14-7.4l1.54.38Zm8.72,6.46s-.02.52-.04.72c-.28,6.14-.56,8.44-1.24,9.2-.42.5-.84.64-1.56.72-.64.06-1.9.02-3.14-.04-.02-.46-.2-1.06-.48-1.5,1.3.12,2.52.14,3,.14.42,0,.64-.04.84-.26.52-.5.8-2.5,1.04-7.54h-5.16c-.52,3.96-1.82,7.56-6.9,9.42-.18-.4-.6-.98-.96-1.3,4.72-1.58,5.82-4.72,6.28-8.12h-4.08v-1.44h12.4Zm-2.54-7.16c1,3.14,3.14,6,5.68,7.44-.32.32-.8.92-1.06,1.34-2.48-1.6-4.54-4.4-5.68-7.38h-3.54v-1.4h4.6Z"/>
        <path class="cls-1" d="m233.58,371.35c-.72-.62-2.22-1.52-3.36-2.06l.76-1.1c1.12.5,2.62,1.32,3.38,1.94l-.78,1.22Zm1.34,2.74c-.88,2.08-2.08,4.5-3.06,6.34l-1.16-1c.92-1.52,2.24-4.1,3.22-6.34l1,1Zm-.26-7.96c-.74-.66-2.26-1.62-3.42-2.22l.76-1.08c1.16.56,2.7,1.46,3.48,2.12l-.82,1.18Zm12.78-2.32c-2.48.84-6.08,1.48-9.32,1.92v3.86c0,3.3-.34,8.06-2.52,11.32-.24-.24-.84-.6-1.18-.72,2.12-3.12,2.32-7.48,2.32-10.6v-4.98c3.36-.46,7.32-1.2,9.52-2l1.18,1.2Zm1.02,7.7c-1.02.86-2.2,1.82-3.2,2.5.78,2.3,1.88,4.16,3.44,5.26-.34.26-.84.84-1.06,1.24-2.84-2.22-4.16-6.68-4.84-11.88-.5.1-.96.18-1.44.24v9.48l3-1.2c.04.38.18.92.28,1.2-3.86,1.66-4.4,1.96-4.74,2.26-.1-.34-.36-.94-.58-1.24.3-.16.72-.5.72-1.26v-10.26c2.08-.36,4.52-.92,5.86-1.54l1.18,1.14c-.86.36-1.94.64-3.06.92.22,1.54.5,3.06.88,4.44.88-.74,1.88-1.66,2.52-2.36l1.04,1.06Z"/>
        <path class="cls-1" d="m268.32,374.67v1.26h-8.26v4.88h-1.46v-4.88h-8.1v-1.26h8.1v-1.66h1.46v1.66h8.26Zm-1.9-.88c-1.62-.62-3.88-1.22-6.5-1.82-2.16.92-5,1.38-8.68,1.62-.14-.44-.34-.92-.56-1.28,2.74-.12,4.96-.38,6.76-.84-1.36-.26-2.76-.5-4.22-.72.62-.56,1.3-1.22,1.98-1.94h-4.5v-1.22h5.58c.6-.7,1.14-1.42,1.56-2.06l1.44.44c-.36.52-.8,1.08-1.26,1.62h4.92c.24-.42.44-.88.6-1.38l1.44.34c-.12.38-.24.7-.4,1.04h3.54v1.22h-4.2c-.62.94-1.4,1.7-2.36,2.32,2.44.54,4.64,1.12,6.3,1.68l-1.44.98Zm-9.46,3.06c-1.22,1.36-3.24,2.6-5,3.38-.26-.28-.86-.8-1.22-1.02,1.8-.66,3.7-1.7,4.76-2.84l1.46.48Zm-4.52-9.92h-1.4v-2.86h7.7c-.24-.42-.5-.82-.72-1.18l1.48-.36c.3.44.72,1.04,1,1.54h7.32v2.86h-1.44v-1.6h-13.94v1.6Zm4.46,1.88c-.42.44-.84.84-1.22,1.22,1.32.2,2.62.44,3.9.7,1.04-.52,1.9-1.14,2.56-1.92h-5.24Zm5.74,7.36c1.8.8,4.12,2.12,5.3,3.08l-1.08,1.08c-1.12-.98-3.4-2.36-5.22-3.22l1-.94Z"/>
        <path class="cls-1" d="m276.18,363.07c-.56,1.46-1.22,2.94-1.98,4.32v13.4h-1.42v-11.1c-.58.86-1.22,1.64-1.84,2.34-.14-.36-.58-1.12-.84-1.46,1.86-1.94,3.62-4.92,4.68-7.94l1.4.44Zm12.16,10.86h-5.42v6.9h-1.48v-6.9h-5.7v-1.46h5.7v-4.38h-3.14c-.42,1.16-.9,2.2-1.44,3.04-.28-.22-.9-.58-1.28-.76,1.18-1.64,2-4.24,2.46-6.82l1.4.3c-.18.94-.4,1.88-.66,2.78h2.66v-3.82h1.48v3.82h4.56v1.46h-4.56v4.38h5.42v1.46Z"/>
        <path class="cls-1" d="m182.42,403.19c-.2,1.76-.6,3.68-1.02,4.94-.28-.16-.92-.34-1.24-.46.48-1.24.78-3.04.98-4.68l1.28.2Zm3.92-5.48c.54,1.34,1.14,3.08,1.34,4.14l-1.22.4c-.06-.32-.16-.72-.26-1.14-4.42.66-5.04.8-5.44,1-.08-.3-.3-1.02-.46-1.4.4-.08.88-.6,1.48-1.32.3-.32.94-1.16,1.66-2.22-2.06.24-2.52.32-2.8.46-.08-.28-.3-.98-.46-1.36.32-.08.68-.48,1.12-1.08.42-.6,1.86-2.9,2.7-5.06l1.38.58c-.92,1.88-2.04,3.82-3.18,5.34l2.12-.18c.52-.82,1.06-1.74,1.48-2.62l1.28.76c-1.28,2.26-2.88,4.58-4.5,6.38l3.3-.44c-.22-.66-.46-1.32-.68-1.9l1.14-.34Zm-1.86,5.22c.28,1.38.52,3.16.58,4.36l-1.22.24c-.04-1.18-.28-3.02-.5-4.4l1.14-.2Zm2.02-.52c.44,1.18.92,2.7,1.12,3.7l-1.14.4c-.18-1-.64-2.58-1.06-3.74l1.08-.36Zm7.36-11.76c-.08.2-.16.38-.24.58,1.24,2.26,3.42,4.62,5.36,5.8-.36.3-.86.84-1.12,1.22-.56-.4-1.12-.88-1.68-1.46v1.28h-6.56v-1.06c-.54.52-1.14,1.02-1.76,1.48-.22-.32-.72-.82-1.06-1.06,2.58-1.76,4.64-4.46,5.66-7.18l1.4.4Zm-5.14,9.68h8.54v8.14h-1.5v-1.02h-5.6v1.08h-1.44v-8.2Zm7.36-3.64c-1.14-1.16-2.26-2.6-3.14-4.08-.8,1.48-1.8,2.86-3,4.08h6.14Zm-5.92,4.98v4.44h5.6v-4.44h-5.6Z"/>
        <path class="cls-1" d="m206.06,400.72c-.26-.56-.86-1.66-1.38-2.56v10.26h-1.32v-10.12c-.66,2.3-1.58,4.6-2.5,6-.16-.44-.52-1.08-.76-1.44,1.2-1.64,2.44-4.8,3.04-7.44h-2.56v-1.4h2.78v-3.82h1.32v3.82h2.16v1.4h-2.16v1.04c.5.64,1.9,2.7,2.22,3.2l-.84,1.06Zm7.44,5.88h4.88v1.12h-9.14v.72h-1.34v-6.24c-.42.46-.82.9-1.26,1.26-.14-.28-.54-.9-.78-1.16,1.24-1.02,2.46-2.54,3.2-4.1h-1.7v-3.88h4.56v3.88h-2.32l.76.26c-.24.48-.5.98-.78,1.44h2.62c-.16-.4-.32-.82-.46-1.18l1.28-.34c.22.46.44,1.04.62,1.52h4.38v1.02h-4.52v1.18h3.68v1.06h-3.68v1.2h3.68v1.04h-3.68v1.2Zm-3.4-13.66h-3.48v-1.16h3.48v-1.58h1.3v3.74h-1.3v-1Zm-1.6,4.24h2.26v-1.84h-2.26v1.84Zm3.68,3.74h-2.94v1.18h2.94v-1.18Zm0,2.24h-2.94v1.2h2.94v-1.2Zm-2.94,3.44h2.94v-1.2h-2.94v1.2Zm8.4-8.4h-4.64v-3.88h4.64v3.88Zm.88-6.42v1.16h-3.7v.96h-1.32v-3.7h1.32v1.58h3.7Zm-2.06,3.56h-2.32v1.84h2.32v-1.84Z"/>
        <path class="cls-1" d="m227.74,406.29c-1.68.94-4.24,1.8-6.28,2.28-.22-.3-.7-.88-1.02-1.16,2.08-.38,4.52-1.02,5.98-1.74l1.32.62Zm10.42-10.52v1.12h-17.56v-1.12h8.02v-1.18h-5.98v-1h5.98v-1.06h-6.9v-1.08h6.9v-1.28h1.5v1.28h7.04v1.08h-7.04v1.06h6.2v1h-6.2v1.18h8.04Zm-2.2,9.8h-12.92v-7.66h12.92v7.66Zm-1.48-6.68h-10v1.26h10v-1.26Zm0,2.2h-10v1.28h10v-1.28Zm0,2.22h-10v1.28h10v-1.28Zm-2.38,2.32c2.16.64,4.56,1.44,5.98,2.04l-1.46.86c-1.26-.6-3.42-1.4-5.64-2.08l1.12-.82Z"/>
        <path class="cls-1" d="m258.18,405.65h-8.12v2.8h-1.5v-2.8h-7.94v-1.32h7.94v-1.5h-5.96v-6.98h13.74v6.98h-6.28v1.5h8.12v1.32Zm-9.5-10.74h-6.6v-3.92h6.6v3.92Zm-1.42-2.92h-3.84v1.9h3.84v-1.9Zm-3.22,6.76h4.52v-1.7h-4.52v1.7Zm4.52,2.88v-1.74h-4.52v1.74h4.52Zm6.26-4.58h-4.76v1.7h4.76v-1.7Zm0,2.84h-4.76v1.74h4.76v-1.74Zm2.06-4.98h-6.64v-3.92h6.64v3.92Zm-1.4-2.92h-3.9v1.9h3.9v-1.9Z"/>
        <path class="cls-1" d="m266.54,390.68c-.54,1.46-1.24,2.88-2.02,4.24v13.5h-1.48v-11.18c-.62.9-1.3,1.7-1.98,2.42-.14-.36-.56-1.12-.84-1.46,1.96-1.92,3.82-4.9,4.92-7.94l1.4.42Zm11.84,15.52v1.44h-12.44v-1.44h6.98c.72-2.68,1.52-6.92,1.9-9.9l1.54.28c-.52,3.06-1.34,6.96-2.06,9.62h4.08Zm-.82-10.96h-10.78v-1.44h10.78v1.44Zm-8.12,10.04c-.16-2.08-.74-5.74-1.36-8.52l1.34-.3c.66,2.78,1.26,6.36,1.48,8.4l-1.46.42Zm2.26-11.7c-.16-.84-.56-2.18-.94-3.18l1.4-.36c.36,1,.82,2.28,1,3.1l-1.46.44Z"/>
      </g>
    </g>
    <g>
      <rect class="cls-4" x="408.27" y="303.59" width="185.11" height="165.8" rx="14.33" ry="14.33"/>
      <g>
        <path class="cls-1" d="m466.74,368.02c-.78,5.04-2.62,8.96-4.88,11.04-.26-.32-.82-.88-1.14-1.1,2.04-1.76,3.62-4.94,4.36-8.88h-3.74v-1.36h4.2l.28-.06.92.36Zm4.02,7.24h3.52v1.3h-3.52v2.22c0,.92-.22,1.32-.88,1.58-.64.24-1.76.26-3.46.26-.08-.42-.32-1.02-.54-1.44,1.34.04,2.58.04,2.92.04.38-.02.48-.14.48-.44v-2.22h-3.68v-1.3h3.68v-1.86h-2.78v-1.28h2.78v-1.76h-2.44v-1.3h2.44v-1.8c1.38-.6,2.92-1.54,4.04-2.46h-9.38v-1.36h10.9l.32-.08,1.02.74c-1.38,1.42-3.42,2.86-5.42,3.8v1.16h2.3v1.3h-2.3v1.76h2.62v1.28h-2.62v1.86Zm7.6-7.68c-.94.92-2.14,1.92-3.16,2.66.66,3.28,1.96,6.22,3.98,7.66-.34.28-.82.86-1.06,1.24-2.3-1.86-3.64-5.36-4.36-9.38,1.08-.78,2.58-2.16,3.44-3.14l1.16.96Z"/>
        <path class="cls-1" d="m484.44,375.4c-.12,1.86-.66,4.02-2.52,5.5-.2-.28-.58-.74-.9-.96,1.58-1.14,1.98-3,2.08-4.54h-2.06v-1.26h2.1v-2.38h-2.36v-1.26h3.26c.34-1.08.72-2.66.9-3.74l1.18.28c-.32,1.12-.68,2.44-1,3.46h1.66v1.26h-2.3v2.38h1.98v1.26h-2.02Zm2.24-8.9h-5.74v-1.26h2.34c-.24-.66-.6-1.44-.92-2.06l1.24-.36c.4.76.86,1.72,1.12,2.42h1.96v1.26Zm-4.64,3.84c0-.86-.24-2.18-.58-3.2l1.04-.26c.36,1,.62,2.32.66,3.18l-1.12.28Zm10.1-3.24s-.02.52-.02.68c-.12,8.58-.2,11.28-.66,12.04-.3.46-.62.62-1.08.68-.4.06-.98.04-1.58.02-.04-.38-.16-.92-.34-1.26.58.04,1.12.04,1.38.04.24.02.38-.04.52-.3.28-.52.42-3.08.52-10.58h-1.42c-.22,5.22-.84,9.38-2.92,12.48-.2-.22-.72-.72-1-.92,1.96-2.68,2.56-6.68,2.74-11.56h-1.24v-1.32h1.26c.02-1.44.02-2.94.02-4.5h1.22c0,1.58-.02,3.06-.06,4.5h2.66Zm4.46,4.68v2.64h2.2v1.26h-2.2v5.14h-1.36v-5.14h-2.14v-1.26h2.14v-2.64h-2.46v-1.26h3.46c.34-1.08.72-2.72.9-3.84l1.2.3c-.32,1.16-.68,2.52-1,3.54h1.64v1.26h-2.38Zm2.16-5.32h-5.9v-1.24h2.46c-.26-.7-.62-1.52-.96-2.18l1.24-.36c.42.78.88,1.78,1.14,2.54h2.02v1.24Zm-4.66,3.92c-.04-.88-.3-2.26-.66-3.3l1.02-.26c.4,1.02.68,2.4.74,3.28l-1.1.28Z"/>
        <path class="cls-1" d="m518.68,378.04h-8.12v2.8h-1.5v-2.8h-7.94v-1.32h7.94v-1.5h-5.96v-6.98h13.74v6.98h-6.28v1.5h8.12v1.32Zm-9.5-10.74h-6.6v-3.92h6.6v3.92Zm-1.42-2.92h-3.84v1.9h3.84v-1.9Zm-3.22,6.76h4.52v-1.7h-4.52v1.7Zm4.52,2.88v-1.74h-4.52v1.74h4.52Zm6.26-4.58h-4.76v1.7h4.76v-1.7Zm0,2.84h-4.76v1.74h4.76v-1.74Zm2.06-4.98h-6.64v-3.92h6.64v3.92Zm-1.4-2.92h-3.9v1.9h3.9v-1.9Z"/>
        <path class="cls-1" d="m527.04,363.08c-.54,1.46-1.24,2.88-2.02,4.24v13.5h-1.48v-11.18c-.62.9-1.3,1.7-1.98,2.42-.14-.36-.56-1.12-.84-1.46,1.96-1.92,3.82-4.9,4.92-7.94l1.4.42Zm11.84,15.52v1.44h-12.44v-1.44h6.98c.72-2.68,1.52-6.92,1.9-9.9l1.54.28c-.52,3.06-1.34,6.96-2.06,9.62h4.08Zm-.82-10.96h-10.78v-1.44h10.78v1.44Zm-8.12,10.04c-.16-2.08-.74-5.74-1.36-8.52l1.34-.3c.66,2.78,1.26,6.36,1.48,8.4l-1.46.42Zm2.26-11.7c-.16-.84-.56-2.18-.94-3.18l1.4-.36c.36,1,.82,2.28,1,3.1l-1.46.44Z"/>
        <path class="cls-1" d="m465.64,399.77c-.38,1.76-.96,3.7-1.64,5.16.38.22.86.6,1.6,1.04,1.42.86,3.22,1,5.6,1,2.56,0,5.8-.2,8.04-.42-.2.4-.42,1.1-.46,1.54-1.48.1-5.28.22-7.64.22-2.64,0-4.38-.22-5.86-1.1-.8-.48-1.54-1.16-2-1.16s-1.12,1.26-1.7,2.52l-1.02-1.34c.7-1,1.4-1.82,2-2.22.6-1.14,1.12-2.72,1.44-4.16h-2.62c.56-1.18,1.18-2.88,1.72-4.46h-2.22v-1.34h4.1c-.5,1.44-1.12,3.12-1.66,4.5h1.38l.26-.06.68.28Zm-2.7-5.76c-.24-.88-.7-2.24-1.02-3.28l1.3-.4c.36,1.04.82,2.36,1.06,3.22l-1.34.46Zm4.6,2.26c-.48.62-.98,1.18-1.48,1.68-.18-.3-.64-.98-.92-1.28,1.74-1.52,3.24-3.9,4.14-6.42l1.36.38c-.36.98-.8,1.96-1.3,2.88h3.98c-.3-.76-.78-1.7-1.2-2.46l1.36-.4c.56.88,1.16,2.02,1.46,2.86h3.5v1.3h-4.3v1.94h3.64v1.26h-3.64v1.98h3.6v1.26h-3.6v2.08h4.64v1.28h-9.8v1.16h-1.44v-9.5Zm5.18-1.46h-3.74v1.94h3.74v-1.94Zm0,3.2h-3.74v1.98h3.74v-1.98Zm0,3.24h-3.74v2.08h3.74v-2.08Z"/>
        <path class="cls-1" d="m487.44,394.99c-.62,1-1.36,2.02-2.18,3v10.56h-1.5v-8.9c-.76.78-1.54,1.48-2.28,2.08-.22-.32-.76-.94-1.08-1.22,2.08-1.46,4.26-3.78,5.64-6.04l1.4.52Zm-.76-4.22c-1.32,1.78-3.36,3.74-5.18,5-.2-.32-.64-.9-.92-1.18,1.7-1.1,3.66-2.92,4.66-4.38l1.44.56Zm12.18,7.54h-2.96v8.24c0,.92-.24,1.32-.92,1.56-.7.2-1.82.22-3.66.2-.08-.38-.32-.98-.54-1.36,1.4.04,2.74.04,3.12.02.38-.02.48-.1.48-.44v-8.22h-6.66v-1.42h11.14v1.42Zm-.48-5.48h-9.8v-1.4h9.8v1.4Z"/>
        <path class="cls-1" d="m510.38,400.83c-.38,1.94-1.1,3.46-2.02,4.64,1.42,1.2,3.34,1.48,5.66,1.48.62,0,4.32,0,5.14-.02-.2.3-.4.9-.46,1.26h-4.74c-2.72,0-4.84-.36-6.42-1.82-1.06,1-2.3,1.7-3.7,2.2-.14-.3-.44-.8-.7-1.04,1.36-.4,2.6-1.1,3.6-2.08-.42-.6-.82-1.32-1.16-2.22-.4.56-.86,1.04-1.32,1.44-.16-.18-.56-.58-.84-.8-.28,1.66-.76,3.32-1.58,4.66-.24-.28-.86-.76-1.16-.9,1.56-2.6,1.72-6.24,1.72-8.86v-4.88h6.52v-3.66h1.46v1.26h6.84v1.12h-6.84v1.28h6.98l.24-.06,1.04.28c-.42,1.14-.9,2.44-1.38,3.24l-1.22-.38c.28-.48.54-1.2.8-1.9h-6.52v1.2l5.08-.32.06,1-5.14.34v.46c0,.56.12.74.8.74h4.66c.58,0,1.64-.04,2.06-.12.04.38.06.78.12,1.1-.36.1-1.24.1-2.06.1h-4.92c-1.68,0-2.06-.52-2.06-1.82v-.36l-3.96.26-.06-1.02,4.02-.26v-1.3h-5.1v3.72c0,1.42-.08,3.18-.36,4.92,1.32-1.12,2.42-2.8,3.02-4.66l1.18.3c-.16.46-.32.88-.52,1.32h2.24l.24-.04.76.2Zm-3.8.92c-.08.14-.16.28-.22.42.28.98.68,1.78,1.16,2.42.62-.78,1.08-1.74,1.42-2.84h-2.36Zm9.54,4.1c-1,0-1.28-.26-1.28-1.26v-2.8h-2.04v.46c0,1.32-.34,2.9-1.88,4.06-.18-.24-.68-.7-.92-.86,1.34-.98,1.58-2.2,1.58-3.24v-1.56h4.42v3.94c0,.38.04.44.3.44h.78c.24,0,.3-.22.36-1.28.22.16.62.3.92.36-.08,1.36-.38,1.74-1.12,1.74h-1.12Z"/>
        <path class="cls-1" d="m527.2,404.35c-2.14.72-4.42,1.5-6.2,2.08l-.34-1.5c.74-.22,1.66-.5,2.68-.84v-5.38h-2.28v-1.4h2.28v-4.34h-2.48v-1.4h6.2v1.4h-2.3v4.34h2.02v1.4h-2.02v4.94l2.18-.72.26,1.42Zm11.94,2.12v1.36h-12.88v-1.36h6.08v-2.74h-4.54v-1.36h4.54v-2.34h-4.3v-8.9h10.16v8.9h-4.36v2.34h4.66v1.36h-4.66v2.74h5.3Zm-9.74-11.52h3.04v-2.52h-3.04v2.52Zm0,3.78h3.04v-2.56h-3.04v2.56Zm7.38-6.3h-3.06v2.52h3.06v-2.52Zm0,3.74h-3.06v2.56h3.06v-2.56Z"/>
      </g>
    </g>
    <g>
      <rect class="cls-4" x="677.12" y="303.59" width="185.11" height="165.8" rx="14.33" ry="14.33"/>
      <g>
        <path class="cls-1" d="m747.03,363.42v17.42h-1.58v-1.08h-13.5v1.08h-1.5v-17.42h16.58Zm-1.58,14.94v-13.46h-13.5v13.46h13.5Zm-2.9-10.36v7.22h-7.72v-7.22h7.72Zm-1.46,1.34h-4.84v4.56h4.84v-4.56Z"/>
        <path class="cls-1" d="m765.93,376.7c-.72.96-1.78,1.7-3,2.3,1.42.36,3,.62,4.56.76-.24.28-.54.74-.7,1.08-1.9-.24-3.78-.62-5.48-1.2-1.9.66-4.1,1.02-6.3,1.24-.12-.32-.34-.76-.56-1.04,1.8-.14,3.64-.38,5.26-.8-.8-.34-1.52-.74-2.22-1.16-.56.28-1.16.56-1.78.78-.16-.22-.56-.62-.82-.8.58-.2,1.12-.44,1.62-.7-.36-.32-.7-.62-1-.98l1-.4c.28.3.62.6.98.88.64-.38,1.2-.78,1.66-1.18h-2.3v-3.34c-.42.5-.86.94-1.28,1.32-.2-.22-.68-.62-.98-.84-.34.44-.68.86-1.08,1.3v6.92h-1.32v-5.64c-.58.54-1.22,1.02-1.82,1.44-.18-.28-.58-.74-.82-.96,1.68-1.08,3.48-2.84,4.36-4.36l1.28.44c-.12.18-.26.36-.4.56,1.18-.98,2.24-2.3,2.88-3.72l1.28.36c-.12.22-.24.48-.36.72h8.44v1.04h-9.08c-.16.24-.32.46-.48.7h8.44v4.06h-5.22c-.24.28-.5.54-.8.8h4.98l.24-.06.82.48Zm-11.2-7.5c-1,1.42-2.68,2.9-4.16,3.84-.24-.28-.64-.74-.9-.96,1.4-.82,3-2.12,3.74-3.3l1.32.42Zm11.74-.6h-15.38v-3.22h4.54v-.96h-5.48v-1.08h17.24v1.08h-5.7v.96h4.78v3.22Zm-14.02-.98h3.18v-1.24h-3.18v1.24Zm4.54-2.24h3.3v-.96h-3.3v.96Zm3.3,2.24v-1.24h-3.3v1.24h3.3Zm-2.18,5.44h6.5v-.82h-6.5v.82Zm0,1.6h6.5v-.82h-6.5v.82Zm.4,2.64c.82.46,1.78.88,2.82,1.24.96-.36,1.8-.8,2.46-1.32h-5.16l-.12.08Zm6.54-10.92h-3.36v1.24h3.36v-1.24Z"/>
        <path class="cls-1" d="m780.93,373.82c1.04,3.18,2.88,5.36,4.66,5.34.58-.02.82-.82.92-2.92.34.3.9.58,1.3.7-.24,2.92-.84,3.68-2.3,3.68-2.68.02-4.98-2.82-6.14-6.8h-6.02v5l4.8-1.16c0,.4.08,1.06.16,1.36-5.44,1.46-6.18,1.64-6.66,1.94-.12-.4-.44-1.06-.7-1.36.36-.18.88-.64.88-1.46v-14.52h14.14v5.78h-5.84c.06,1.06.22,2.06.44,3.02h6.88v1.4h-6.52Zm-7.58-8.8v2.98h11.14v-2.98h-11.14Zm5.66,7.4c-.18-.96-.34-1.96-.4-3.02h-5.26v3.02h5.66Z"/>
        <path class="cls-1" d="m795.11,372.5c-.16.74-.4,1.56-.72,2.4,1.1.78,2.38,1.86,2.96,2.62l-.8,1.04c-.54-.68-1.64-1.7-2.64-2.54-.76,1.5-1.88,2.9-3.62,3.84-.2-.32-.62-.86-.92-1.08,2.86-1.42,3.84-4.32,4.28-6.28h1.46Zm11.84-1.88c-2.04.34-4.7.62-7.5.82v9.66h-1.46v-9.58c-2.3.14-4.62.22-6.62.26-.2-.36-.58-1.06-.88-1.4,5.04.08,11.66-.26,15.36-.86l1.1,1.1Zm-.36-2h-15.72v-5.26h15.72v5.26Zm-11.04-3.94h-3.26v2.6h3.26v-2.6Zm4.74,0h-3.36v2.6h3.36v-2.6Zm4.58,7.44c-.14.84-.34,1.72-.62,2.58.7,1.24,2.08,2.96,3.56,3.86-.32.26-.76.74-.98,1.08-1.22-.86-2.38-2.32-3.18-3.52-.68,1.42-1.7,2.74-3.24,3.68-.2-.36-.64-.88-.96-1.12,2.72-1.5,3.58-4.44,3.96-6.56h1.46Zm.24-7.44h-3.44v2.6h3.44v-2.6Z"/>
        <path class="cls-1" d="m733.29,403.03c-.12,1.86-.66,4.02-2.52,5.5-.2-.28-.58-.74-.9-.96,1.58-1.14,1.98-3,2.08-4.54h-2.06v-1.26h2.1v-2.38h-2.36v-1.26h3.26c.34-1.08.72-2.66.9-3.74l1.18.28c-.32,1.12-.68,2.44-1,3.46h1.66v1.26h-2.3v2.38h1.98v1.26h-2.02Zm2.24-8.9h-5.74v-1.26h2.34c-.24-.66-.6-1.44-.92-2.06l1.24-.36c.4.76.86,1.72,1.12,2.42h1.96v1.26Zm-4.64,3.84c0-.86-.24-2.18-.58-3.2l1.04-.26c.36,1,.62,2.32.66,3.18l-1.12.28Zm10.1-3.24s-.02.52-.02.68c-.12,8.58-.2,11.28-.66,12.04-.3.46-.62.62-1.08.68-.4.06-.98.04-1.58.02-.04-.38-.16-.92-.34-1.26.58.04,1.12.04,1.38.04.24.02.38-.04.52-.3.28-.52.42-3.08.52-10.58h-1.42c-.22,5.22-.84,9.38-2.92,12.48-.2-.22-.72-.72-1-.92,1.96-2.68,2.56-6.68,2.74-11.56h-1.24v-1.32h1.26c.02-1.44.02-2.94.02-4.5h1.22c0,1.58-.02,3.06-.06,4.5h2.66Zm4.46,4.68v2.64h2.2v1.26h-2.2v5.14h-1.36v-5.14h-2.14v-1.26h2.14v-2.64h-2.46v-1.26h3.46c.34-1.08.72-2.72.9-3.84l1.2.3c-.32,1.16-.68,2.52-1,3.54h1.64v1.26h-2.38Zm2.16-5.32h-5.9v-1.24h2.46c-.26-.7-.62-1.52-.96-2.18l1.24-.36c.42.78.88,1.78,1.14,2.54h2.02v1.24Zm-4.66,3.92c-.04-.88-.3-2.26-.66-3.3l1.02-.26c.4,1.02.68,2.4.74,3.28l-1.1.28Z"/>
        <path class="cls-1" d="m756.05,404.35c-2.14.72-4.42,1.5-6.2,2.08l-.34-1.5c.74-.22,1.66-.5,2.68-.84v-5.38h-2.28v-1.4h2.28v-4.34h-2.48v-1.4h6.2v1.4h-2.3v4.34h2.02v1.4h-2.02v4.94l2.18-.72.26,1.42Zm11.94,2.12v1.36h-12.88v-1.36h6.08v-2.74h-4.54v-1.36h4.54v-2.34h-4.3v-8.9h10.16v8.9h-4.36v2.34h4.66v1.36h-4.66v2.74h5.3Zm-9.74-11.52h3.04v-2.52h-3.04v2.52Zm0,3.78h3.04v-2.56h-3.04v2.56Zm7.38-6.3h-3.06v2.52h3.06v-2.52Zm0,3.74h-3.06v2.56h3.06v-2.56Z"/>
        <path class="cls-1" d="m769.39,399.15c.48-1.32.84-3.52.98-5.1l1.18.18c-.1,1.58-.46,3.86-.94,5.34l-1.22-.42Zm3.02-8.94h1.38v18.24h-1.38v-18.24Zm2.54,2.88c.48.94,1.04,2.2,1.26,2.94l-1.06.58c-.22-.8-.76-2.1-1.22-3.08l1.02-.44Zm12.84,3.58v1.14h-12.16v-1.14h5.26v-1.4h-4.2v-1.08h4.2v-1.26h-4.74v-1.14h4.74v-1.56h1.46v1.56h4.82v1.14h-4.82v1.26h4.3v1.08h-4.3v1.4h5.44Zm-1.24,10.2c0,.76-.16,1.14-.7,1.34-.58.24-1.46.24-2.88.24-.06-.38-.24-.92-.42-1.28,1,.04,1.96.04,2.22.02.28-.02.36-.1.36-.34v-1.5h-7c-.2,1.2-.58,2.4-1.32,3.36-.22-.3-.78-.86-1.08-1.02,1.1-1.5,1.22-3.52,1.22-5.08v-3.66h9.6v7.92Zm-1.42-2.62v-1.52h-6.78c0,.46-.02,1-.06,1.52h6.84Zm-6.78-4.18v1.54h6.78v-1.54h-6.78Z"/>
        <path class="cls-1" d="m798.29,399.37v9.1h-1.44v-9.1h-3.24c-.08,3.34-.58,6.62-2.96,9.24-.24-.32-.78-.8-1.12-1,2.16-2.36,2.6-5.28,2.68-8.24h-2.58v-1.38h2.6v-5.14h-2.3v-1.4h10.24v1.4h-1.88v5.14h2.18v1.38h-2.18Zm-1.44-1.38v-5.14h-3.22v5.14h3.22Zm11.18,3.94c-1.68,2.76-4.52,5.12-7.6,6.54-.24-.36-.68-.88-1.04-1.18,2.94-1.22,5.76-3.44,7.24-5.9l1.4.54Zm-1.04-10.8c-1.44,1.84-3.7,3.6-5.7,4.7-.28-.32-.7-.78-1.08-1.04,1.9-.94,4.18-2.64,5.4-4.24l1.38.58Zm.56,5.46c-1.56,1.94-3.94,3.84-6.08,5.04-.26-.32-.68-.78-1.04-1.06,2.02-1.02,4.42-2.84,5.76-4.56l1.36.58Z"/>
      </g>
    </g>
    <path class="cls-2" d="m392.5,384.14l-30.92-24.72c-1.39-.87-3.37-.04-3.37,1.41v10.77c0,.97-.94,1.76-2.11,1.76h-16.19c-1.16,0-2.11.79-2.11,1.76v20.84c0,.97.94,1.76,2.11,1.76h16.19c1.16,0,2.11.79,2.11,1.76v10.77c0,1.45,1.98,2.28,3.37,1.41l30.92-24.72c1.12-.71,1.12-2.12,0-2.82Z"/>
    <path class="cls-2" d="m660.26,384.14l-30.92-24.72c-1.39-.87-3.37-.04-3.37,1.41v10.77c0,.97-.94,1.76-2.11,1.76h-16.19c-1.16,0-2.11.79-2.11,1.76v20.84c0,.97.94,1.76,2.11,1.76h16.19c1.16,0,2.11.79,2.11,1.76v10.77c0,1.45,1.98,2.28,3.37,1.41l30.92-24.72c1.12-.71,1.12-2.12,0-2.82Z"/>
  </g>
</svg>