<?xml version="1.0" encoding="UTF-8"?>
<svg id="_圖層_1" data-name="圖層 1" xmlns="http://www.w3.org/2000/svg" width="400" height="65" viewBox="0 0 400 65">
  <defs>
    <style>
      .cls-1 {
        fill: #fff;
      }
    </style>
  </defs>
  <path class="cls-1" d="m399,1v63H1V1h398m1-1H0v65h400V0h0Z"/>
  <g>
    <path class="cls-1" d="m129.34,45h-13.2l-1.28-2.08c2.29-4.35,6.08-12.73,11.36-25.16h1.2l4.52,2.32-10.2,19.44-1.76,2.6,9.4-.56.4-7.48,4.36-.36v7.52l5.12-.28v4.04h-5.12v6.4h-4.8v-6.4Z"/>
    <path class="cls-1" d="m145.04,41.98c-1.8-2.28-2.7-5.38-2.7-9.3,0-2.77.52-5.13,1.56-7.06,1.04-1.93,2.42-3.39,4.14-4.36,1.72-.97,3.63-1.46,5.74-1.46,3.44,0,6.03,1.09,7.76,3.26,1.73,2.17,2.6,5.25,2.6,9.22,0,2.75-.5,5.11-1.5,7.1-1,1.99-2.35,3.49-4.06,4.5-1.71,1.01-3.61,1.52-5.72,1.52-3.41,0-6.02-1.14-7.82-3.42Zm11.92-1.56c.79-1.72,1.18-4.29,1.18-7.7,0-3.63-.37-6.29-1.1-7.98-.73-1.69-1.98-2.54-3.74-2.54-3.31,0-4.96,3.35-4.96,10.04,0,3.57.39,6.26,1.18,8.06s2.03,2.7,3.74,2.7,2.91-.86,3.7-2.58Z"/>
    <path class="cls-1" d="m171.32,41.98c-1.8-2.28-2.7-5.38-2.7-9.3,0-2.77.52-5.13,1.56-7.06,1.04-1.93,2.42-3.39,4.14-4.36,1.72-.97,3.63-1.46,5.74-1.46,3.44,0,6.03,1.09,7.76,3.26,1.73,2.17,2.6,5.25,2.6,9.22,0,2.75-.5,5.11-1.5,7.1-1,1.99-2.35,3.49-4.06,4.5-1.71,1.01-3.61,1.52-5.72,1.52-3.41,0-6.02-1.14-7.82-3.42Zm11.92-1.56c.79-1.72,1.18-4.29,1.18-7.7,0-3.63-.37-6.29-1.1-7.98s-1.98-2.54-3.74-2.54c-3.31,0-4.96,3.35-4.96,10.04,0,3.57.39,6.26,1.18,8.06.79,1.8,2.03,2.7,3.74,2.7s2.91-.86,3.7-2.58Z"/>
    <path class="cls-1" d="m205.06,26.56l3.08-3.08,6.32,6.92,6.28-6.92,3.04,3.08-6.68,6.4,6.68,6.4-3.04,3.04-6.28-6.88-6.32,6.88-2.96-3.04,6.64-6.4-6.76-6.4Z"/>
    <path class="cls-1" d="m243.94,43.84c-1.63-1.09-2.86-2.59-3.7-4.48-.84-1.89-1.26-4.03-1.26-6.4,0-3.41.84-6.54,2.52-9.38,1.68-2.84,3.83-5.13,6.44-6.88s5.24-2.79,7.88-3.14l1.16,2.16c-2.85.85-5.25,2.33-7.18,4.42-1.93,2.09-3.29,4.51-4.06,7.26.67-.64,1.53-1.18,2.6-1.62,1.07-.44,2.29-.66,3.68-.66,2.64,0,4.73.82,6.26,2.46s2.3,3.89,2.3,6.74c0,1.97-.43,3.81-1.28,5.52-.85,1.71-2.09,3.07-3.72,4.1-1.63,1.03-3.56,1.54-5.8,1.54s-4.21-.55-5.84-1.64Zm3.18-14.98c-.87.47-1.53.98-1.98,1.54-.08.75-.12,1.51-.12,2.28-.05,3.23.31,5.76,1.1,7.6.79,1.84,2.07,2.76,3.86,2.76,1.52,0,2.69-.73,3.5-2.18s1.22-3.26,1.22-5.42c0-2.53-.41-4.38-1.24-5.54-.83-1.16-1.96-1.74-3.4-1.74-1.09,0-2.07.23-2.94.7Z"/>
    <path class="cls-1" d="m268.98,48.72c1.84,0,3.51-.37,5.02-1.12,1.51-.75,2.7-1.77,3.58-3.06.88-1.29,1.32-2.73,1.32-4.3,0-2-.48-3.44-1.44-4.32s-2.35-1.32-4.16-1.32c-.88,0-1.85.12-2.9.36-1.05.24-1.93.52-2.62.84l-1.32-.92,1.92-14.76h12.36l.4-.76h2.76l-.84,5h-10.96l-1.64,8.32c.77-.4,1.7-.75,2.78-1.06,1.08-.31,2.23-.46,3.46-.46,2.72,0,4.81.71,6.26,2.12,1.45,1.41,2.18,3.41,2.18,6,0,2.29-.67,4.37-2.02,6.22s-3.21,3.31-5.6,4.36c-2.39,1.05-5.07,1.58-8.06,1.58-1.01,0-1.95-.09-2.8-.28v-2.52c1.01.05,1.79.08,2.32.08Z"/>
  </g>
</svg>