<svg width="16" height="18" viewBox="0 0 16 18" fill="none" xmlns="http://www.w3.org/2000/svg">
<path d="M5.625 14.0625C5.625 14.3789 5.34375 14.625 5.0625 14.625C4.74609 14.625 4.5 14.3789 4.5 14.0625V6.75C4.5 6.46875 4.74609 6.1875 5.0625 6.1875C5.34375 6.1875 5.625 6.46875 5.625 6.75V14.0625ZM8.4375 14.0625C8.4375 14.3789 8.15625 14.625 7.875 14.625C7.55859 14.625 7.3125 14.3789 7.3125 14.0625V6.75C7.3125 6.46875 7.55859 6.1875 7.875 6.1875C8.15625 6.1875 8.4375 6.46875 8.4375 6.75V14.0625ZM11.25 14.0625C11.25 14.3789 10.9688 14.625 10.6875 14.625C10.3711 14.625 10.125 14.3789 10.125 14.0625V6.75C10.125 6.46875 10.3711 6.1875 10.6875 6.1875C10.9688 6.1875 11.25 6.46875 11.25 6.75V14.0625ZM11.1445 0.878906L12.4453 2.8125H14.9062C15.3633 2.8125 15.75 3.19922 15.75 3.65625C15.75 4.14844 15.3633 4.5 14.9062 4.5H14.625V15.1875C14.625 16.7695 13.3594 18 11.8125 18H3.9375C2.35547 18 1.125 16.7695 1.125 15.1875V4.5H0.84375C0.351562 4.5 0 4.14844 0 3.65625C0 3.19922 0.351562 2.8125 0.84375 2.8125H3.26953L4.57031 0.878906C4.92188 0.351562 5.55469 0 6.22266 0H9.49219C10.1602 0 10.793 0.351562 11.1445 0.878906ZM5.30859 2.8125H10.4062L9.73828 1.82812C9.70312 1.75781 9.59766 1.6875 9.49219 1.6875H6.22266C6.11719 1.6875 6.01172 1.75781 5.97656 1.82812L5.30859 2.8125ZM2.8125 15.1875C2.8125 15.8203 3.30469 16.3125 3.9375 16.3125H11.8125C12.4102 16.3125 12.9375 15.8203 12.9375 15.1875V4.5H2.8125V15.1875Z" fill="#212529"/>
</svg>
