<?xml version="1.0" encoding="utf-8"?>
<!-- Generator: Adobe Illustrator 26.0.3, SVG Export Plug-In . SVG Version: 6.00 Build 0)  -->
<svg version="1.1" id="圖層_1" xmlns="http://www.w3.org/2000/svg" xmlns:xlink="http://www.w3.org/1999/xlink" x="0px" y="0px"
	 viewBox="0 0 560 115.2" style="enable-background:new 0 0 560 115.2;" xml:space="preserve">
<style type="text/css">
	.st0{fill-rule:evenodd;clip-rule:evenodd;fill:#FFFFFF;}
	.st1{fill:#FFFFFF;}
</style>
<g>
	<path class="st0" d="M162.8,106.5l-5.5-12v-0.3h-2.1v15.4h2.1V99.2l4.7,10.2v0.3h1.5l4.7-10.5v10.5h2.1V94.2h-2.3L162.8,106.5z"/>
	<path class="st0" d="M174.3,92.9c-0.8-0.1-1.5,0.5-1.6,1.3c0.1,0.8,0.7,1.5,1.6,1.6c0.8-0.1,1.4-0.8,1.3-1.6c0-0.7-0.5-1.3-1.1-1.3
		C174.5,92.9,174.4,92.9,174.3,92.9z"/>
	<path class="st0" d="M173,109.7h2.1V97.4H173V109.7z"/>
	<path class="st0" d="M184,97.1c-1.4,0-2.7,0.5-3.7,1.6v-1.3h-2.1v12.3h2.1v-6.8c0-2.6,1.3-3.9,3.4-3.9c2.1,0,3.1,1.3,3.1,3.7v7.1
		h2.4v-7.1C189,99.2,186.9,97.1,184,97.1z"/>
	<path class="st0" d="M191.9,109.7h2.1V97.4h-2.1V109.7z"/>
	<path class="st0" d="M192.9,92.9c-0.8-0.1-1.5,0.5-1.6,1.3c0.1,0.8,0.7,1.5,1.6,1.6c0.8-0.1,1.4-0.8,1.3-1.6c0-0.7-0.5-1.3-1.2-1.3
		C193,92.9,193,92.9,192.9,92.9z"/>
	<path class="st0" d="M201.3,102.6L201.3,102.6c-1.6-0.5-2.9-0.8-2.9-2.1c0-0.8,1-1.6,2.3-1.6c1.3-0.1,2.4,0.8,2.6,2v0.3h2.1V101
		c-0.3-2.3-1.8-3.9-4.7-3.9c-2.6,0-4.5,1.6-4.5,3.7c0,2.6,2.4,3.1,4.2,3.7c1.6,0.5,2.6,0.8,2.6,1.8c-0.2,1.2-1.2,2-2.4,1.8
		c-1.3,0.1-2.6-0.7-2.9-2.1v-0.3h-2.1v0.3c0.3,2.3,2.1,3.7,5,3.7c2.6,0,4.4-1.6,4.4-3.7C205.5,103.9,203.4,103.1,201.3,102.6z"/>
	<path class="st0" d="M210.5,94.5h-2.4v2.9h-1.5v1.8h1.6v6.8c0,2.3,1.1,3.7,3.4,3.7h1.8v-1.8h-1.6c-1.3,0-1.6-0.3-1.6-1.6v-6.8h3.1
		v-1.8h-3.1v-3.1H210.5z"/>
	<path class="st0" d="M221.2,97.1c-1.3,0-2.6,0.4-3.6,1.3v-1.3h-2.1v12.3h2.1v-6.8c0-2.3,1-3.4,3.1-3.4h0.8v-2.1H221.2z"/>
	<path class="st0" d="M228,106.8l-3.7-9.2v-0.3H222l4.7,11.8l-2.4,5.8h2.4l7.1-17.3l0.3-0.3h-2.4L228,106.8z"/>
	<path class="st0" d="M250.6,103.4c0.1,2.2-1.5,4-3.6,4.2c-0.1,0-0.2,0-0.4,0c-1.8,0-3.9-1-3.9-4.2s2.1-4.4,3.9-4.4
		C249.5,99,250.6,101.3,250.6,103.4z M246.6,97.1c-3.7,0-6,2.6-6,6.3c0,3.4,2.8,6.2,6.1,6.2c3.4,0,6.2-2.8,6.2-6.2
		C252.6,99.7,250.3,97.1,246.6,97.1z"/>
	<path class="st0" d="M257.6,96.9c0-1.6,0.5-2.1,2.4-2.1h0.3v-2.1h-1.6c-0.5,0-0.8,0.3-1.3,0.3c-0.3,0-0.3,0.3-0.5,0.3
		c-0.3,0.3-0.5,0.3-0.8,0.8c0,0.3-0.3,0.3-0.3,0.5c-0.2,0.3-0.3,0.6-0.3,1v1.8h-1.8v1.8h1.6v10.2h2.4V99.2h2.6v-1.8h-2.6V96.9z"/>
	<path class="st0" d="M278.8,101.8c0,3.9-2.1,6-6,6h-2.6V96.1h2.6C276.7,96.1,278.8,97.9,278.8,101.8z M272.8,94h-4.7v15.4h4.7
		c5.2,0,8.1-2.9,8.1-7.8C280.9,96.9,278,94,272.8,94L272.8,94z"/>
	<path class="st0" d="M284.3,92.9c-0.8-0.1-1.5,0.5-1.6,1.3c0.1,0.8,0.7,1.5,1.6,1.6c0.8-0.1,1.4-0.8,1.3-1.6
		C285.9,93.5,285.1,92.9,284.3,92.9z"/>
	<path class="st0" d="M283.2,109.7h2.3V97.4h-2.4L283.2,109.7z"/>
	<path class="st0" d="M297.6,103.4c0.1,2.2-1.5,4-3.7,4.2c-0.1,0-0.2,0-0.3,0c-2.4,0-3.9-1.8-3.9-4.4s1.6-4.1,3.9-4.1
		C296.1,99,297.6,100.8,297.6,103.4z M297.6,99c-1.1-1.2-2.6-1.8-4.2-1.8c-3.4,0-5.8,2.6-5.8,6.3s2.4,6.3,5.8,6.3
		c1.6,0.1,3.2-0.6,4.2-1.8v1.8c0.1,1.9-1.3,3.5-3.2,3.7c-0.2,0-0.3,0-0.5,0c-1.6,0.2-3.1-0.8-3.7-2.4v-0.3h-2.1v0.3
		c0.5,2.6,2.6,4.2,5.8,4.2c3,0.1,5.6-2.2,5.8-5.2c0-0.2,0-0.4,0-0.5v-12h-2.1V99z"/>
	<path class="st0" d="M303.9,92.9c-0.8-0.1-1.5,0.5-1.6,1.3c0,0.9,0.7,1.6,1.6,1.6c0.9,0,1.6-0.7,1.6-1.6
		C305.3,93.5,304.7,93,303.9,92.9z"/>
	<path class="st0" d="M302.6,109.7h2.1V97.4h-2.1V109.7z"/>
	<path class="st0" d="M310.2,94.5h-2.1v2.9h-1.5v1.8h1.6v6.8c0,2.3,1,3.7,3.4,3.7h2v-1.8h-1.8c-1.3,0-1.6-0.3-1.6-1.6v-6.8h3.1v-1.8
		h-3.1V94.5z"/>
	<path class="st0" d="M320.9,107.9c-2.4,0-3.9-1.8-3.9-4.4s1.6-4.4,3.9-4.4c2.3,0,4.2,1.9,4.2,4.2c0,0.1,0,0.2,0,0.2
		C324.9,106,323.3,107.9,320.9,107.9z M324.9,99c-1.1-1.2-2.6-1.8-4.2-1.8c-3.4,0-5.8,2.6-5.8,6.3s2.4,6.3,5.8,6.3
		c1.7,0,3.3-0.6,4.4-1.8v1.8h1.8V97.4h-2.1V99z"/>
	<path class="st0" d="M329.8,109.7h2.4V93.2h-2.4V109.7z"/>
	<path class="st0" d="M348.9,104.2h-5l2.6-6.8L348.9,104.2z M347.6,94.2h-2.1l-5.5,14.9l-0.3,0.5h2.4l1.3-3.4h6.3l1.3,3.1v0.3h2.4
		L347.6,94.2L347.6,94.2z"/>
	<path class="st0" d="M357.6,96.9c0-1.6,0.5-2.1,2.4-2.1h0.3v-2.1h-1.6c-0.5,0-0.8,0.3-1.3,0.3c-0.3,0-0.3,0.3-0.5,0.3
		c-0.3,0.3-0.5,0.3-0.8,0.8c-0.3,0.3-0.3,0.3-0.3,0.5c-0.2,0.3-0.3,0.6-0.3,1v1.8h-1.6v1.8h1.6v10.2h2.1V99.2h2.9v-1.8h-2.9V96.9z"
		/>
	<path class="st0" d="M364.7,96.9c0-1.6,0.5-2.1,2.4-2.1h0.3v-2.1h-1.6c-0.5,0-0.8,0.3-1.3,0.3c-0.3,0-0.3,0.3-0.5,0.3
		c-0.3,0.5-0.3,0.8-0.5,1s-0.3,0.3-0.3,0.5c-0.2,0.3-0.3,0.6-0.3,1v1.8H361v1.8h1.6v10.2h2.1V99.5h2.6v-1.8h-2.6L364.7,96.9z"/>
	<path class="st0" d="M378.8,103.4c0.1,2.2-1.5,4-3.6,4.2c-0.1,0-0.2,0-0.3,0c-2.4,0-3.9-1.8-3.9-4.4s1.6-4.4,3.9-4.4
		C377.1,99.1,378.8,101.1,378.8,103.4z M378.8,99c-1.1-1.2-2.6-1.8-4.2-1.8c-3.4,0-5.8,2.6-5.8,6.3s2.4,6.3,5.8,6.3
		c1.6,0.1,3.2-0.6,4.2-1.8v1.8h2.1V97.4h-2.1L378.8,99z"/>
	<path class="st0" d="M384.8,92.9c-0.7,0-1.3,0.5-1.3,1.2c0,0.1,0,0.1,0,0.2c-0.1,0.8,0.5,1.5,1.3,1.6c0.8,0.1,1.5-0.5,1.6-1.3
		c0-0.1,0-0.2,0-0.3C386.2,93.5,385.6,93,384.8,92.9z"/>
	<path class="st0" d="M383.8,109.7h2.1V97.4h-2.1V109.7z"/>
	<path class="st0" d="M394.5,97.1c-1.3-0.1-2.7,0.4-3.7,1.3v-1.3h-2.1v12.3h2.1v-6.8c0-2.3,1-3.4,3.1-3.4h0.8v-2.1H394.5z"/>
	<path class="st0" d="M401.3,102.6L401.3,102.6c-1.6-0.5-2.9-0.8-2.9-2.1c0-0.8,1-1.6,2.4-1.6c1.6,0,2.4,0.8,2.4,2.1v0.3h2.1V101
		c-0.3-2.3-1.8-3.9-4.7-3.9c-2.4,0-4.5,1.6-4.5,3.7c0,2.6,2.4,3.1,4.5,3.7c1.6,0.5,2.6,0.8,2.6,1.8s-0.8,1.8-2.4,1.8
		c-1.3,0.1-2.5-0.6-2.9-1.8V106h-2.3v0.3c0.3,2.3,2.4,3.7,5,3.7s4.2-1.6,4.2-3.7C405.2,103.9,403.1,103.1,401.3,102.6z"/>
	<path class="st0" d="M164.9,53.7l1.6-2.7c0.3-0.3,0.3-0.3,0.5-0.3l11.6-0.2c0.5,0,0.8,0.5,0.8,1c-0.9,2.1-2.3,4.1-3.9,5.8
		c-0.5,0.3-0.8,0.5-1.1,0.3C171.5,56.3,168.3,55,164.9,53.7z M169.1,33.5v3.1c0.1,0.4-0.2,0.7-0.6,0.8c-0.1,0-0.1,0-0.2,0H160
		c-0.4,0.1-0.7-0.2-0.8-0.6c0-0.1,0-0.1,0-0.2v-3.1c-0.1-0.4,0.2-0.7,0.6-0.8c0.1,0,0.1,0,0.2,0h8.4
		C168.7,32.7,169.1,33.1,169.1,33.5z M173.6,36.7v-3.1c-0.1-0.4,0.2-0.7,0.6-0.8c0.1,0,0.1,0,0.2,0h7.3c0.4-0.1,0.7,0.2,0.8,0.6
		c0,0.1,0,0.1,0,0.2v3.1c0.1,0.4-0.2,0.7-0.6,0.8c-0.1,0-0.1,0-0.2,0h-7.3c-0.4,0-0.7-0.2-0.8-0.6C173.6,36.8,173.6,36.7,173.6,36.7
		z M173.6,11.8V8.9c0-0.1,0.1-0.3,0.2-0.3c0,0,0,0,0,0h8.1c0.1,0,0.3,0.1,0.3,0.2c0,0,0,0,0,0V12c0,0.1-0.1,0.3-0.2,0.3c0,0,0,0,0,0
		h-8.1C173.6,12.3,173.6,12,173.6,11.8z M182.2,17v3.1c0,0.1-0.1,0.3-0.2,0.3c0,0,0,0,0,0h-8.1c-0.1,0-0.3-0.1-0.3-0.2c0,0,0,0,0,0
		V17c0-0.1,0.1-0.3,0.2-0.3c0,0,0,0,0,0h8.1C182.1,16.7,182.2,16.8,182.2,17C182.2,17,182.2,17,182.2,17z M169.1,17v3.1
		c0,0.1-0.1,0.3-0.2,0.3c0,0,0,0,0,0h-7.6c-0.1,0-0.3-0.1-0.3-0.2c0,0,0,0,0,0V17c0-0.1,0.1-0.3,0.3-0.3c0,0,0,0,0,0h7.3
		C168.8,16.8,169,16.9,169.1,17z M161,11.8V8.9c0-0.1,0.1-0.3,0.3-0.3c0,0,0,0,0,0h7.3c0.1,0,0.3,0.1,0.3,0.2c0,0,0,0,0,0V12
		c0,0.1-0.1,0.3-0.3,0.3c0,0,0,0,0,0h-7.3C161,12.3,161,12,161,11.8z M179.8,59.2c2.1-2.4,3.6-5.3,4.4-8.4c0-0.3,0.3-0.5,0.8-0.5
		h9.2v-3.7c0-0.4-0.4-0.8-0.8-0.8l-24.1,0.3l2.4-3.9c0.1-0.1,0.3-0.2,0.5-0.3h13.6c0.4,0,0.8-0.4,0.8-0.8V28.8
		c0.1-0.4-0.2-0.7-0.6-0.8c-0.1,0-0.1,0-0.2,0h-12.3v-2.9h12.6c0.4,0,0.8-0.4,0.8-0.8v-6.8c-0.1-0.4,0.2-0.7,0.6-0.8
		c0.1,0,0.1,0,0.2,0h3.4c0.4,0,0.8-0.4,0.8-0.8v-2.9c0-0.4-0.4-0.8-0.8-0.8h-3.4c-0.4,0.1-0.7-0.2-0.8-0.6c0-0.1,0-0.1,0-0.2V4.7
		c0-0.4-0.4-0.8-0.8-0.8h-12.3c-0.1,0-0.3-0.1-0.3-0.3c0,0,0,0,0,0V0.3C173.4,0.1,173.2,0,173,0h-3.7c-0.1,0-0.3,0.1-0.3,0.2
		c0,0,0,0,0,0v3.1c0,0.1-0.1,0.3-0.2,0.3c0,0,0,0,0,0h-11.8c-0.3,0.3-0.8,0.5-0.8,1v6.8c0.1,0.4-0.2,0.7-0.6,0.8c-0.1,0-0.1,0-0.2,0
		h-3.1c-0.4-0.1-0.7,0.2-0.8,0.6c0,0.1,0,0.1,0,0.2v3.1c0,0.4,0.4,0.8,0.8,0.8h3.4c0.4-0.1,0.7,0.2,0.8,0.6c0,0.1,0,0.2,0,0.2v6.8
		c0,0.4,0.2,0.7,0.6,0.8c0.1,0,0.1,0,0.2,0h11.8v3.1h-13.9c-0.4,0-0.8,0.4-0.8,0.8v12.3c0,0.4,0.4,0.8,0.8,0.8h11.3l-2.4,3.9
		c-0.3,0.3-0.3,0.3-0.8,0.3l-11,0.3l0,0v3.7c0,0.4,0.4,0.8,0.8,0.8l7.1-0.3c0.5,0,1,0.8,0.8,1l-3.1,5.3c-0.3,0.3,0,0.8,0.3,1
		l3.2,1.8l1.3-2.6c2.4,0.8,4.7,1.8,6.8,2.6c0.4,0.2,0.5,0.7,0.3,1c-0.1,0.1-0.2,0.2-0.3,0.3c-4.3,2.1-8.9,3.5-13.6,4.2l0,0l0.3,4.4
		h0.3c0,0,10.5-1,18.9-6.8c0.2-0.2,0.5-0.3,0.7-0.1c0,0,0.1,0.1,0.1,0.1c2.9,1.5,5.8,3.2,8.4,5.2l0.3,0.3l2.9-3.7l-0.3-0.3
		c-2.3-1.6-4.6-3.1-7.1-4.5C179.6,60.2,179.6,59.7,179.8,59.2z"/>
	<path class="st0" d="M212.3,19.4c-0.2,7.6-1.8,15-4.7,22c-0.2,0.2-0.5,0.3-0.7,0.1c0,0-0.1-0.1-0.1-0.1c-3.9-8.1-6.3-16.2-6.8-22
		c0-0.3,0.3-0.3,0.5-0.3h11.3C212,19.1,212.3,19.1,212.3,19.4z M224.1,66.8c-5-4.7-9.7-11.5-14.1-19.1v-0.3c4.2-8.4,6.3-17.8,6.8-28
		c0-0.1,0.1-0.3,0.2-0.3c0,0,0,0,0,0h3.9c0.3,0,0.3-0.3,0.3-0.5v-3.7c0-0.1-0.1-0.3-0.2-0.3c0,0,0,0,0,0h-19.6
		c-0.3,0-0.5-0.3-0.3-0.5c1.1-4.3,1.9-8.7,2.4-13.1V0.8L199,0.3v0.3c0,0.3-2.1,20.2-10.2,34l-0.3,0.3l3.9,2.3l0.3-0.3
		c1.5-2.5,2.7-5.1,3.7-7.9c0.2-0.2,0.5-0.3,0.7-0.1c0,0,0.1,0.1,0.1,0.1c1.9,6.4,4.3,12.6,7.3,18.6v0.3
		c-6.6,12.1-14.9,17.6-15.2,17.6h0.3l2.3,3.7l0.3-0.3c6-4.5,11-10.1,14.9-16.5c0.3-0.3,0.5-0.3,0.5,0c3.7,6.2,8.1,12,13.1,17.3
		l0.3,0.3L224.1,66.8z"/>
	<path class="st0" d="M262,3.7l-4.2-1.8l-0.3-0.3v0.3c-0.3,0.5-7.1,15.7-18.8,28.3l-0.3,0.3l3.7,3.4l0.3-0.3
		c1.8-2.1,3.7-4.2,5.8-6.8c0.3-0.5,1.3-0.3,1.3,0.5v41.9c0,0.4,0.4,0.8,0.8,0.8h3.4c0.4,0.1,0.7-0.2,0.8-0.6c0-0.1,0-0.1,0-0.2v-51
		c0-0.3,0-0.3,0.3-0.3C259.4,10.3,262,4.2,262,3.7L262,3.7z"/>
	<path class="st0" d="M261.5,20.9H306c0.4,0.1,0.7-0.2,0.8-0.6c0-0.1,0-0.1,0-0.2v-3.7c0.1-0.4-0.2-0.7-0.6-0.8c-0.1,0-0.1,0-0.2,0
		h-18.8c-0.4,0.1-0.7-0.2-0.8-0.6c0-0.1,0-0.1,0-0.2V1.3c0.1-0.4-0.2-0.7-0.6-0.8c-0.1,0-0.1,0-0.2,0h-3.4c-0.4,0-0.7,0.2-0.8,0.6
		c0,0.1,0,0.1,0,0.2v13.9c0.1,0.4-0.2,0.7-0.6,0.8c-0.1,0-0.1,0-0.2,0h-19.1c-0.4,0-0.8,0.4-0.8,0.8v3.4
		C260.8,20.5,261.1,20.8,261.5,20.9z"/>
	<path class="st0" d="M293.7,62c-0.5,0-0.8-0.5-0.8-1c5.2-16.5,8.1-32.5,8.4-33l0.5-2.4l-5-0.8l-0.5,2.4c-2.3,11.6-5.3,23-8.9,34.3
		c0,0.3-0.3,0.5-0.8,0.5h-7.9c-0.4,0-0.8-0.4-0.8-0.8c-1.8-12.2-3.6-24.3-4.4-30.1c-0.3-2.4-0.5-3.4-0.5-3.9l-0.3-2.4l-5,0.8
		l0.3,2.4c0,0.3,0.3,1.8,0.5,3.9c0.5,4.2,2.4,16.5,4.4,29c0.1,0.4-0.2,0.7-0.6,0.8c-0.1,0-0.1,0-0.2,0h-11.8
		c-0.4-0.1-0.7,0.2-0.8,0.6c0,0.1,0,0.1,0,0.2V66c-0.1,0.4,0.2,0.7,0.6,0.8c0.1,0,0.1,0,0.2,0h47.4c0.4,0,0.8-0.4,0.8-0.8v-3.2
		c0.1-0.4-0.2-0.7-0.6-0.8c-0.1,0-0.1,0-0.2,0L293.7,62z"/>
	<path class="st0" d="M351,24.1h-8.1c-0.4,0-0.8-0.2-0.8-0.6c0-0.3,0.1-0.5,0.3-0.7c10.7-7.8,13.9-15.4,13.9-15.4
		c0.3-0.8,0.2-1.6-0.3-2.3c-0.5-0.7-1.3-1.1-2.1-1H334c-0.4-0.1-0.7,0.2-0.8,0.6c0,0.1,0,0.1,0,0.2v3.1c-0.1,0.4,0.2,0.7,0.6,0.8
		c0.1,0,0.1,0,0.2,0h14.1c0.4,0,0.8,0.2,0.8,0.6c0,0.3-0.1,0.5-0.3,0.7c-1.8,2.1-3.7,4.1-5.8,6c-0.3,0.2-0.7,0.2-1,0
		c-2.4-2-4.9-3.7-7.6-5.2v-0.3l-2.1,3.7v0.3l0.3,0.3c2,1.1,4,2.5,5.8,3.9c0.3,0.4,0.3,0.9,0,1.3c-4.1,2.8-8.5,5.2-13.1,7.1h-0.3
		l1.8,4.5h0.3c2.9-1.3,5.8-2.6,8.9-4.2v2.1h12.6c0.4-0.1,0.7,0.2,0.8,0.6c0,0.1,0,0.1,0,0.2v5.2c0.1,0.4-0.2,0.7-0.6,0.8
		c-0.1,0-0.1,0-0.2,0h-11.5c-1.4,0-2.7,1-3.1,2.4l-3.1,13.4c-0.3,0.3,0.3,0.8,0.5,1l3.9,1l0.5-2.1h12.6c0.4-0.1,0.7,0.2,0.8,0.6
		c0,0.1,0,0.1,0,0.2c-0.5,6.3-1.6,11.5-2.4,12.6c-0.8,0.8-4.4,0.8-7.1,0.5h-0.3c-1.3,0-2.4-0.3-3.4-0.3h-0.3v5h3.4
		c1,0,2.4,0.3,3.7,0.3c2.6,0,5.8-0.3,7.6-2.4c3.1-3.4,3.7-15.4,3.9-19.1c0-0.7-0.3-1.3-0.8-1.8c-0.5-0.5-1.1-0.8-1.8-0.8h-13.9
		c-0.5,0-0.8-0.5-0.8-1l1-4.5c0-0.3,0.3-0.5,0.8-0.5h10.2v1.3h4.2c0.4,0,0.8-0.4,0.8-0.8V27.2C354,25.6,352.7,24.2,351,24.1z"/>
	<path class="st0" d="M393.2,24.9c-3.6-1.1-7-2.8-10-5c-0.5-0.3-0.5-0.8,0-1.3l5.8-5.2c0.2-0.3,0.2-0.7,0-1l-2.3-2.3
		c-0.3-0.2-0.7-0.2-1,0l-6.5,5.8c-0.3,0.2-0.7,0.2-1,0c-1.2-1-2.3-2-3.4-3.1c-0.5,0-0.5-0.5,0-0.8c3.4-3.1,6-5.5,6-5.5l0.3-0.3
		l-3.4-3.4h-0.3c0,0-2.4,2.4-6,5.5c-0.3,0.2-0.7,0.2-1,0c-1.8-2-3.4-4.2-4.7-6.5l-0.3-0.3L361.1,4v0.3c0.4,0.8,11.4,19.1,30.4,25.3
		h0.3L393.2,24.9L393.2,24.9z"/>
	<path class="st0" d="M366.2,50.3h9.7c0.5,0,1,0.8,0.8,1c-1.3,2.1-2.9,4.1-4.7,5.8c-0.3,0.2-0.7,0.2-1,0c-2-1.6-3.8-3.6-5.2-5.8
		c-0.2-0.3-0.1-0.8,0.3-1C366.1,50.3,366.2,50.3,366.2,50.3z M376.7,61c-0.5-0.3-0.5-0.8-0.3-1.3c3.1-3.2,5.5-7.1,7.1-11.2
		c0.3-0.7,0-1.6-0.5-2.1c-0.5-0.5-1.1-0.9-1.8-1h-19.6c-0.7,0-1.4,0.3-1.8,0.8c-0.5,0.4-0.7,1.2-0.5,1.8c0,0.3,0.8,5.8,7.6,12
		c0.3,0.4,0.3,0.9,0,1.3c-3.7,2.2-7.8,3.8-12,4.7h-0.3l1,5h0.3c5.6-1.2,11-3.5,15.7-6.8c0.2-0.2,0.5-0.3,0.7-0.1
		c0,0,0.1,0.1,0.1,0.1c4.7,2.9,9.8,5.2,15.2,6.8h0.3l1.6-4.7H389C384.7,64.9,380.6,63.1,376.7,61z"/>
	<path class="st0" d="M390.3,37.4l-1.8,3.1c-0.9,1.6-2.6,2.5-4.4,2.6h-3.9c-2.9,0-5.3-2.5-5.2-5.4c0,0,0-0.1,0-0.1v-8.4
		c0-0.5-0.3-0.8-0.5-0.8h-8.1v1.8c0.3,13.4-7.9,14.1-8.1,14.1h-0.3l-0.3-2.4l-0.3-2.3h0.3c0,0,4.2-0.5,3.9-9.2
		c0-2.1-0.3-4.2,1.3-5.8c0.8-0.8,1.8-1.2,2.9-1h8.9c3.1,0.1,5.5,2.7,5.5,5.8V38c0,0.2,0.1,0.4,0.3,0.5h3.9l0.3-0.3l1.8-3.1
		c0.3-0.3,0.8-0.5,1-0.3l2.9,1.6C390.3,36.7,390.6,37.2,390.3,37.4z"/>
	<path class="st0" d="M441.9,28.8v-6c0-0.4,0.4-0.8,0.8-0.8h14.1c0.4-0.1,0.7,0.2,0.8,0.6c0,0.1,0,0.1,0,0.2v6
		c0.1,0.4-0.2,0.7-0.6,0.8c-0.1,0-0.1,0-0.2,0h-14.1C442.3,29.5,442,29.2,441.9,28.8z M457.6,35.1v6c0,0.4-0.2,0.7-0.6,0.8
		c-0.1,0-0.1,0-0.2,0h-14.1c-0.4,0.1-0.7-0.2-0.8-0.6c0-0.1,0-0.1,0-0.2v-6c0-0.4,0.4-0.8,0.8-0.8h14.1
		C457.2,34.3,457.5,34.7,457.6,35.1z M437.2,35.1v6c0.1,0.4-0.2,0.7-0.6,0.8c-0.1,0-0.1,0-0.2,0h-12c-0.4,0.1-0.7-0.2-0.8-0.6
		c0-0.1,0-0.1,0-0.2c0.7-6,1-12,1-18.1c-0.1-0.4,0.2-0.7,0.6-0.8c0.1,0,0.1,0,0.2,0h11c0.4-0.1,0.7,0.2,0.8,0.6c0,0.1,0,0.1,0,0.2
		v5.8c0.1,0.4-0.2,0.7-0.6,0.8c-0.1,0-0.1,0-0.2,0h-8.6c-0.4-0.1-0.7,0.2-0.8,0.6c0,0.1,0,0.1,0,0.2v3.4c-0.1,0.4,0.2,0.7,0.6,0.8
		c0.1,0,0.1,0,0.2,0h8.6C436.9,34.3,437.2,34.8,437.2,35.1L437.2,35.1z M468.8,9.7v6.8c0,0.4-0.4,0.8-0.8,0.8h-42.7
		c-0.4,0-0.8-0.4-0.8-0.8V9.7c-0.1-0.4,0.2-0.7,0.6-0.8c0.1,0,0.1,0,0.2,0h42.7C468.5,8.9,468.8,9.3,468.8,9.7z M478.3,66.5
		c-4.8-1.5-9.3-3.7-13.4-6.5c-0.3-0.4-0.3-0.9,0-1.3c2.8-1.8,5.5-3.8,8.1-6l0.3-0.3l-3.1-3.4l-0.3-0.3l-0.3,0.3
		c-2.9,2.3-5.9,4.4-9.2,6.3c-0.2,0.2-0.5,0.1-0.7-0.1c0,0-0.1-0.1-0.1-0.2c-2.1-2.2-3.9-4.7-5.5-7.3c-0.3-0.5,0-1,0.8-1h22
		c0.4,0.1,0.7-0.2,0.8-0.6c0-0.1,0-0.1,0-0.2v-3.4c0-0.4-0.4-0.8-0.8-0.8h-13.6c-0.4,0-0.8-0.4-0.8-0.8v-6c0-0.4,0.4-0.8,0.8-0.8
		h9.7c0.4,0.1,0.7-0.2,0.8-0.6c0-0.1,0-0.1,0-0.2V30c0-0.4-0.2-0.7-0.6-0.8c-0.1,0-0.1,0-0.2,0h-9.7c-0.4,0-0.8-0.4-0.8-0.8v-5.5
		c0-0.4,0.4-0.8,0.8-0.8h7.1c1.7,0.1,3.1-1.2,3.2-2.8c0-0.1,0-0.3,0-0.4V8.6c-0.1-2.4-2-4.4-4.5-4.4H422c-0.7,0-1.4,0.3-1.8,0.8
		c-0.5,0.5-0.7,1.2-0.8,1.8c0,0.5,2.1,46.8-8.1,60.2l-0.3,0.3l3.7,2.9l0.3,0.3l0.3-0.3c3.1-4.2,5.8-11.8,7.1-22.2
		c0-0.4,0.4-0.8,0.8-0.8h9.7c0.4-0.1,0.7,0.2,0.8,0.6c0,0.1,0,0.1,0,0.2v14.9c0,0.4-0.4,0.8-0.8,0.8l-7.1,1.3
		c-0.4,0-0.8,0.4-0.8,0.8l0.8,3.1c0,0.5,0.5,0.8,0.8,0.5l26.1-4.7c0.3,0,0.8-0.5,0.5-0.8l-0.5-3.4c0-0.3-0.5-0.8-0.8-0.5l-12.5,2.4
		c-0.4,0.1-0.7-0.2-0.8-0.6c0-0.1,0-0.1,0-0.2V47.6c-0.1-0.4,0.2-0.7,0.6-0.8c0.1,0,0.1,0,0.2,0h8.4c0.3,0,0.5,0.3,0.8,0.5
		c2.1,5,9.7,18.3,28.3,23.8h0.3L478.3,66.5z"/>
	<path class="st0" d="M507.8,13.4h13.9c0.4,0,0.8,0.4,0.8,0.8c-0.8,3.7-2.1,10.2-2.9,15.7c0,0.3-0.3,0.5-0.8,0.5H511
		c-0.3,0-0.8-0.3-0.8-0.5c-0.8-5.2-2.1-12-2.9-15.7C507.1,13.9,507.3,13.4,507.8,13.4z M528.3,13.4h3.1c0.4,0.1,0.7-0.2,0.8-0.6
		c0-0.1,0-0.1,0-0.2V9.2c0.1-0.4-0.2-0.7-0.6-0.8c-0.1,0-0.1,0-0.2,0H518c-0.4,0-0.7-0.2-0.8-0.6c0-0.1,0-0.1,0-0.2V2.1
		c0.1-0.4-0.2-0.7-0.6-0.8c-0.1,0-0.1,0-0.2,0h-3.4c-0.4,0-0.8,0.4-0.8,0.8v5.8c0.1,0.4-0.2,0.7-0.6,0.8c-0.1,0-0.1,0-0.2,0h-13.6
		c-0.4-0.1-0.7,0.2-0.8,0.6c0,0.1,0,0.1,0,0.2v3.1c-0.1,0.4,0.2,0.7,0.6,0.8c0.1,0,0.1,0,0.2,0h3.4c0.3,0,0.8,0.3,0.8,0.5
		c0.8,3.1,2.1,10,3.1,15.7c0.1,0.4-0.2,0.7-0.6,0.8c-0.1,0-0.1,0-0.2,0h-7.6c-0.4-0.1-0.7,0.2-0.8,0.6c0,0.1,0,0.1,0,0.2v3.4
		c0,0.4,0.4,0.8,0.8,0.8h36.4c0.4,0,0.8-0.4,0.8-0.8v-3.1c0.1-0.4-0.2-0.7-0.6-0.8c-0.1,0-0.1,0-0.2,0h-7.6
		c-0.4,0.1-0.7-0.2-0.8-0.6c0-0.1,0-0.1,0-0.2c0.8-5.5,2.4-12.3,2.9-15.7c-0.1-0.3,0-0.6,0.2-0.7C528.1,13.4,528.2,13.3,528.3,13.4z
		"/>
	<path class="st0" d="M524.3,46.9v13.6c0,0.4-0.4,0.8-0.8,0.8h-17c-0.4,0.1-0.7-0.2-0.8-0.6c0-0.1,0-0.1,0-0.2V46.9
		c-0.1-0.4,0.2-0.7,0.6-0.8c0.1,0,0.1,0,0.2,0h17C524,46.1,524.3,46.4,524.3,46.9z M525.9,41.1h-22c-1.7-0.1-3.1,1.2-3.1,2.9
		c0,0.1,0,0.2,0,0.3v24.1c-0.1,0.4,0.2,0.7,0.6,0.8c0.1,0,0.1,0,0.2,0h4.2V66h18.6v3.1h4.2c0.4,0,0.7-0.2,0.8-0.6c0-0.1,0-0.1,0-0.2
		V44.5C529.2,42.7,527.7,41.2,525.9,41.1L525.9,41.1z"/>
	<path class="st0" d="M555.5,29.8c-0.2-0.2-0.3-0.5-0.1-0.7c0,0,0.1-0.1,0.1-0.1l5.2-16.2c0.8-1.9,0.5-4.1-0.8-5.8
		c-1.1-1.7-3-2.6-5-2.6h-12.3c-2.4,0.1-4.4,2-4.5,4.4v60.7c-0.1,0.4,0.2,0.7,0.6,0.8c0.1,0,0.1,0,0.2,0h3.4c0.4,0,0.7-0.2,0.8-0.6
		c0-0.1,0-0.1,0-0.2V10.2c0-0.4,0.4-0.8,0.8-0.8h11.3c0.5,0,0.8,0.3,0.8,0.5c0.3,0.4,0.3,0.9,0,1.3l-5.8,17.5
		c-0.3,0.9-0.2,1.8,0.3,2.6c4.2,6,9.4,17,7.1,22c-1,1.8-3.4,2.9-7.3,2.9h-2.4V61h2.4c5.8,0,9.7-1.8,11.5-5.5
		C566,47.6,558.4,34.3,555.5,29.8z"/>
</g>
<g>
	<path class="st1" d="M64.8,47.5c-14.7,0-15.2,22.4,0,22.4C80,69.9,79.5,47.5,64.8,47.5z M64.8,66.9c-10.9-0.2-10.9-16.3,0-16.5
		C75.7,50.6,75.7,66.7,64.8,66.9z"/>
	<path class="st1" d="M100.2,17.1c-0.8,0-1.5,0.7-1.5,1.5v11.2c-1.8-2.2-4.4-3.8-8.2-3.8c-7.4,0-11.2,5.6-11.2,11.2
		c0.1,5.6,3.9,11.2,11.2,11.2c3.7,0,6.4-1.6,8.2-3.8v1.9c0,0.8,0.7,1.5,1.5,1.5c0.8,0,1.5-0.7,1.5-1.5V18.6
		C101.8,17.8,101.1,17.1,100.2,17.1z M90.5,45.5c-5.4-0.1-8.1-4.2-8.1-8.3c0-4.1,2.7-8.2,8.1-8.3c5.4,0.1,8.1,4.2,8.1,8.3
		C98.7,41.4,96,45.4,90.5,45.5z"/>
	<path class="st1" d="M130.4,0.4c-0.9,0-1.5,0.7-1.5,1.5v1.8c-1.8-2.2-4.4-3.7-8.1-3.7c-7.4,0-11.2,5.6-11.2,11.2
		c0.1,5.6,3.9,11.2,11.2,11.2c3.7,0,6.4-1.5,8.1-3.7v1.9c0,0.9,0.7,1.5,1.5,1.5s1.5-0.7,1.5-1.5V1.9C131.9,1.1,131.2,0.4,130.4,0.4z
		 M120.7,19.5c-5.4-0.1-8.1-4.2-8.1-8.3c0-4.1,2.7-8.2,8.1-8.3c5.4,0.1,8.1,4.2,8.1,8.3C128.8,15.3,126.1,19.4,120.7,19.5z"/>
	<path class="st1" d="M30.6,47.8c-4.7,0-7.9,2.3-9.7,5.4c-1.8-3.1-5-5.4-9.7-5.4c-3.4,0-6.3,1.5-8.1,3.9v-1.9c0-0.8-0.7-1.5-1.5-1.5
		C0.7,48.3,0,49,0,49.8v7.3V59v9.4c0,0.8,0.7,1.5,1.5,1.5c0.8,0,1.5-0.7,1.5-1.5c0.1-1.8-0.1-9.2,0.1-11.9c0.1-0.5,0.2-0.9,0.3-1.1
		c1.2-2.7,3.9-4.5,7.7-4.6c5.4,0.1,8.1,4.2,8.1,8.3v9.4c0,0.9,0.7,1.5,1.5,1.5c0.9,0,1.5-0.7,1.5-1.5V59h0c0-4.1,2.7-8.2,8.1-8.3
		c3.5,0,5.8,1.7,7.1,3.9c0.7,1.4,1.1,3.1,1.1,5.3l0,2.2v6.2c0,0.8,0.7,1.5,1.5,1.5c0.8,0,1.5-0.7,1.5-1.5v-6.2V59
		C41.8,52.4,37.5,47.9,30.6,47.8z"/>
</g>
</svg>
