<?xml version="1.0" encoding="utf-8"?>
<!-- Generator: Adobe Illustrator 24.2.1, SVG Export Plug-In . SVG Version: 6.00 Build 0)  -->
<svg version="1.1" id="圖層_1" xmlns="http://www.w3.org/2000/svg" xmlns:xlink="http://www.w3.org/1999/xlink" x="0px" y="0px"
	 width="411.4px" height="71.2px" viewBox="0 0 411.4 71.2" style="enable-background:new 0 0 411.4 71.2;" xml:space="preserve">
<style type="text/css">
	.st0{fill-rule:evenodd;clip-rule:evenodd;fill:#FFFFFF;}
</style>
<g id="圖層_2_1_">
	<g id="圖層_1-2">
		<g id="container-id1">
			<g id="id1">
				<g>
					<g id="id32">
						<path class="st0" d="M13.4,53.7l1.6-2.7c0.3-0.3,0.3-0.3,0.5-0.3L27,50.5c0.5,0,0.8,0.5,0.8,1c-0.9,2.1-2.3,4.1-3.9,5.8
							c-0.5,0.3-0.8,0.5-1,0.3C19.9,56.3,16.8,55,13.4,53.7z M17.5,33.5v3.1c0.1,0.4-0.2,0.7-0.6,0.8c-0.1,0-0.1,0-0.2,0H8.4
							c-0.4,0.1-0.7-0.2-0.8-0.6c0-0.1,0-0.1,0-0.2v-3.1c-0.1-0.4,0.2-0.7,0.6-0.8c0.1,0,0.1,0,0.2,0h8.4
							C17.2,32.7,17.5,33.1,17.5,33.5z M22,36.7v-3.1c-0.1-0.4,0.2-0.7,0.6-0.8c0.1,0,0.1,0,0.2,0h7.3c0.4-0.1,0.7,0.2,0.8,0.6
							c0,0.1,0,0.1,0,0.2v3.1c0.1,0.4-0.2,0.7-0.6,0.8c-0.1,0-0.1,0-0.2,0h-7.3c-0.4,0-0.7-0.2-0.8-0.6C22,36.8,22,36.7,22,36.7z
							 M22,11.8V8.9c0-0.1,0.1-0.3,0.2-0.3c0,0,0,0,0,0h8.1c0.1,0,0.3,0.1,0.3,0.2c0,0,0,0,0,0V12c0,0.1-0.1,0.3-0.2,0.3
							c0,0,0,0,0,0h-8.1C22,12.3,22,12,22,11.8z M30.6,17v3.1c0,0.1-0.1,0.3-0.2,0.3c0,0,0,0,0,0h-8.1c-0.1,0-0.3-0.1-0.3-0.2
							c0,0,0,0,0,0V17c0-0.1,0.1-0.3,0.2-0.3c0,0,0,0,0,0h8.1C30.5,16.7,30.6,16.8,30.6,17C30.6,17,30.6,17,30.6,17z M17.5,17v3.1
							c0,0.1-0.1,0.3-0.2,0.3c0,0,0,0,0,0H9.7c-0.1,0-0.3-0.1-0.3-0.2c0,0,0,0,0,0V17c0-0.1,0.1-0.3,0.3-0.3c0,0,0,0,0,0H17
							C17.2,16.8,17.4,16.9,17.5,17z M9.4,11.8V8.9c0-0.1,0.1-0.3,0.3-0.3c0,0,0,0,0,0H17c0.1,0,0.3,0.1,0.3,0.2c0,0,0,0,0,0V12
							c0,0.1-0.1,0.3-0.3,0.3c0,0,0,0,0,0H9.7C9.4,12.3,9.4,12,9.4,11.8z M28.3,59.2c2.1-2.4,3.6-5.3,4.5-8.4c0-0.3,0.3-0.5,0.8-0.5
							h9.2v-3.7c0-0.4-0.4-0.8-0.8-0.8l-24.1,0.3l2.4-3.9c0.1-0.1,0.3-0.2,0.5-0.3h13.6c0.4,0,0.8-0.4,0.8-0.8V28.8
							c0.1-0.4-0.2-0.7-0.6-0.8c-0.1,0-0.1,0-0.2,0H22v-2.9h12.5c0.4,0,0.8-0.4,0.8-0.8v-6.8c-0.1-0.4,0.2-0.7,0.6-0.8
							c0.1,0,0.1,0,0.2,0h3.4c0.4,0,0.8-0.4,0.8-0.8v-2.9c0-0.4-0.4-0.8-0.8-0.8h-3.4c-0.4,0.1-0.7-0.2-0.8-0.6c0-0.1,0-0.1,0-0.2
							V4.7c0-0.4-0.4-0.8-0.8-0.8H22.3c-0.1,0-0.3-0.1-0.3-0.3c0,0,0,0,0,0V0.3C21.9,0.1,21.7,0,21.5,0h-3.7c-0.1,0-0.3,0.1-0.3,0.2
							c0,0,0,0,0,0v3.1c0,0.1-0.1,0.3-0.2,0.3c0,0,0,0,0,0H5.5c-0.3,0.3-0.8,0.5-0.8,1v6.8c0.1,0.4-0.2,0.7-0.6,0.8
							c-0.1,0-0.1,0-0.2,0H0.8c-0.4-0.1-0.7,0.2-0.8,0.6C0,12.9,0,13,0,13v3.1C0,16.6,0.4,17,0.8,17h3.4c0.4-0.1,0.7,0.2,0.8,0.6
							c0,0.1,0,0.2,0,0.2v6.8c0,0.4,0.2,0.7,0.6,0.8c0.1,0,0.1,0,0.2,0h11.8v3.1H3.7c-0.4,0-0.8,0.4-0.8,0.8v12.3
							c0,0.4,0.4,0.8,0.8,0.8h11.3l-2.4,3.9c-0.3,0.3-0.3,0.3-0.8,0.3l-11,0.3l0,0v3.7c0,0.4,0.4,0.8,0.8,0.8L8.6,51
							c0.5,0,1,0.8,0.8,1l-3.1,5.3c-0.3,0.3,0,0.8,0.3,1l3.2,1.8l1.3-2.6c2.4,0.8,4.7,1.8,6.8,2.6c0.4,0.2,0.5,0.7,0.3,1
							c-0.1,0.1-0.2,0.2-0.3,0.3c-4.3,2.1-8.9,3.5-13.6,4.2l0,0l0.3,4.4h0.3c0,0,10.5-1,18.9-6.8c0.2-0.2,0.5-0.3,0.7-0.1
							c0,0,0.1,0.1,0.1,0.1c2.9,1.5,5.8,3.2,8.4,5.2l0.3,0.3l2.9-3.7l-0.3-0.3c-2.3-1.6-4.6-3.1-7.1-4.5C28,60.2,28,59.7,28.3,59.2z
							"/>
					</g>
					<g id="id33">
						<path class="st0" d="M60.7,19.4c-0.2,7.6-1.8,15-4.7,22c-0.2,0.2-0.5,0.3-0.7,0.1c0,0-0.1-0.1-0.1-0.1
							c-3.9-8.1-6.3-16.2-6.8-22c0-0.3,0.3-0.3,0.5-0.3h11.3C60.5,19.1,60.7,19.1,60.7,19.4z M72.5,66.8c-5-4.7-9.7-11.5-14.1-19.1
							v-0.3c4.2-8.4,6.3-17.8,6.8-28c0-0.1,0.1-0.3,0.2-0.3c0,0,0,0,0,0h3.9c0.3,0,0.3-0.3,0.3-0.5v-3.7c0-0.1-0.1-0.3-0.2-0.3
							c0,0,0,0,0,0H49.7c-0.3,0-0.5-0.3-0.3-0.5c1.1-4.3,1.9-8.7,2.4-13.1V0.8l-4.5-0.5v0.3c0,0.3-2.1,20.2-10.2,34l-0.3,0.3
							l3.9,2.3l0.3-0.3c1.5-2.5,2.7-5.1,3.7-7.9c0.2-0.2,0.5-0.3,0.7-0.1c0,0,0.1,0.1,0.1,0.1c1.9,6.4,4.3,12.6,7.3,18.6v0.3
							C46.3,59.9,38,65.4,37.7,65.4H38l2.3,3.7l0.3-0.3c6-4.5,11-10.1,14.9-16.5c0.3-0.3,0.5-0.3,0.5,0c3.7,6.2,8.1,12,13.1,17.3
							l0.3,0.3L72.5,66.8z"/>
					</g>
					<g id="id34">
						<path class="st0" d="M110.5,3.7l-4.2-1.8L106,1.6v0.3c-0.3,0.5-7.1,15.7-18.8,28.3l-0.3,0.3l3.7,3.4l0.3-0.3
							c1.8-2.1,3.7-4.2,5.8-6.8c0.3-0.5,1.3-0.3,1.3,0.5v41.9c0,0.4,0.4,0.8,0.8,0.8h3.4c0.4,0.1,0.7-0.2,0.8-0.6c0-0.1,0-0.1,0-0.2
							v-51c0-0.3,0-0.3,0.3-0.3C107.8,10.3,110.5,4.2,110.5,3.7L110.5,3.7z"/>
					</g>
					<g id="id35">
						<path class="st0" d="M109.9,20.9h44.5c0.4,0.1,0.7-0.2,0.8-0.6c0-0.1,0-0.1,0-0.2v-3.7c0.1-0.4-0.2-0.7-0.6-0.8
							c-0.1,0-0.1,0-0.2,0h-18.8c-0.4,0.1-0.7-0.2-0.8-0.6c0-0.1,0-0.1,0-0.2V1.3c0.1-0.4-0.2-0.7-0.6-0.8c-0.1,0-0.1,0-0.2,0h-3.4
							c-0.4,0-0.7,0.2-0.8,0.6c0,0.1,0,0.1,0,0.2v13.9c0.1,0.4-0.2,0.7-0.6,0.8c-0.1,0-0.1,0-0.2,0h-19.1c-0.4,0-0.8,0.4-0.8,0.8
							v3.4C109.3,20.5,109.6,20.8,109.9,20.9z"/>
					</g>
					<g id="id36">
						<path class="st0" d="M142.1,62c-0.5,0-0.8-0.5-0.8-1c5.2-16.5,8.1-32.5,8.4-33l0.5-2.4l-5-0.8l-0.5,2.4
							c-2.3,11.6-5.3,23-8.9,34.3c0,0.3-0.3,0.5-0.8,0.5h-7.8c-0.4,0-0.8-0.4-0.8-0.8c-1.8-12.2-3.6-24.3-4.4-30.1
							c-0.3-2.4-0.5-3.4-0.5-3.9l-0.3-2.4l-5,0.8l0.3,2.4c0,0.3,0.3,1.8,0.5,3.9c0.5,4.2,2.4,16.5,4.4,29c0.1,0.4-0.2,0.7-0.6,0.8
							c-0.1,0-0.1,0-0.2,0h-11.8c-0.4-0.1-0.7,0.2-0.8,0.6c0,0.1,0,0.1,0,0.2V66c-0.1,0.4,0.2,0.7,0.6,0.8c0.1,0,0.1,0,0.2,0h47.4
							c0.4,0,0.8-0.4,0.8-0.8v-3.2c0.1-0.4-0.2-0.7-0.6-0.8c-0.1,0-0.1,0-0.2,0L142.1,62z"/>
					</g>
					<g id="id37">
						<path class="st0" d="M199.5,24.1h-8.1c-0.4,0-0.8-0.2-0.8-0.6c0-0.3,0.1-0.5,0.3-0.7c10.7-7.8,13.9-15.4,13.9-15.4
							c0.3-0.8,0.2-1.6-0.3-2.3c-0.5-0.7-1.3-1.1-2.1-1h-19.9c-0.4-0.1-0.7,0.2-0.8,0.6c0,0.1,0,0.1,0,0.2v3.1
							c-0.1,0.4,0.2,0.7,0.6,0.8c0.1,0,0.1,0,0.2,0h14.1c0.4,0,0.8,0.2,0.8,0.6c0,0.3-0.1,0.5-0.3,0.7c-1.8,2.1-3.7,4.1-5.8,6
							c-0.3,0.2-0.7,0.2-1,0c-2.4-2-4.9-3.7-7.6-5.2v-0.3l-2.1,3.7v0.3l0.3,0.3c2,1.1,4,2.5,5.8,3.9c0.3,0.4,0.3,0.9,0,1.3
							c-4.1,2.8-8.5,5.2-13.1,7.1h-0.3l1.8,4.5h0.3c2.9-1.3,5.8-2.6,8.9-4.2v2.1h12.6c0.4-0.1,0.7,0.2,0.8,0.6c0,0.1,0,0.1,0,0.2
							v5.2c0.1,0.4-0.2,0.7-0.6,0.8c-0.1,0-0.1,0-0.2,0h-11.5c-1.4,0-2.7,1-3.1,2.4l-3.1,13.4c-0.3,0.3,0.3,0.8,0.5,1l3.9,1l0.5-2.1
							h12.6c0.4-0.1,0.7,0.2,0.8,0.6c0,0.1,0,0.1,0,0.2c-0.5,6.3-1.6,11.5-2.4,12.6c-0.8,0.8-4.4,0.8-7.1,0.5h-0.3
							c-1.3,0-2.4-0.3-3.4-0.3H184v5h3.4c1,0,2.4,0.3,3.7,0.3c2.6,0,5.8-0.3,7.6-2.4c3.1-3.4,3.7-15.4,3.9-19.1
							c0-0.7-0.3-1.3-0.8-1.8c-0.5-0.5-1.1-0.8-1.8-0.8h-13.9c-0.5,0-0.8-0.5-0.8-1l1-4.5c0-0.3,0.3-0.5,0.8-0.5h10.2v1.3h4.2
							c0.4,0,0.8-0.4,0.8-0.8V27.2C202.4,25.6,201.1,24.2,199.5,24.1z"/>
					</g>
					<g id="id38">
						<path class="st0" d="M241.6,24.9c-3.6-1.1-7-2.8-10-5c-0.5-0.3-0.5-0.8,0-1.3l5.8-5.2c0.2-0.3,0.2-0.7,0-1l-2.3-2.3
							c-0.3-0.2-0.7-0.2-1,0l-6.5,5.8c-0.3,0.2-0.7,0.2-1,0c-1.2-1-2.3-2-3.4-3.1c-0.5,0-0.5-0.5,0-0.8c3.4-3.1,6-5.5,6-5.5l0.3-0.3
							L226,2.7h-0.3c0,0-2.4,2.4-6,5.5c-0.3,0.2-0.7,0.2-1,0c-1.8-2-3.4-4.2-4.7-6.5l-0.3-0.3L209.6,4v0.3
							c0.4,0.8,11.4,19.1,30.4,25.3h0.3L241.6,24.9L241.6,24.9z"/>
					</g>
					<g id="id39">
						<path class="st0" d="M214.7,50.3h9.7c0.5,0,1,0.8,0.8,1c-1.3,2.1-2.9,4.1-4.7,5.8c-0.3,0.2-0.7,0.2-1,0
							c-2-1.6-3.8-3.6-5.2-5.8c-0.2-0.3-0.1-0.8,0.3-1C214.5,50.3,214.6,50.3,214.7,50.3z M225.1,61c-0.5-0.3-0.5-0.8-0.3-1.3
							c3.1-3.2,5.5-7.1,7.1-11.3c0.3-0.7,0-1.6-0.5-2.1c-0.5-0.5-1.1-0.9-1.8-1h-19.6c-0.7,0-1.4,0.3-1.8,0.8
							c-0.5,0.4-0.7,1.2-0.5,1.8c0,0.3,0.8,5.8,7.6,12c0.3,0.4,0.3,0.9,0,1.3c-3.7,2.2-7.8,3.8-12,4.7h-0.3l1,5h0.3
							c5.6-1.2,11-3.5,15.7-6.8c0.2-0.2,0.5-0.3,0.7-0.1c0,0,0.1,0.1,0.1,0.1c4.7,2.9,9.8,5.2,15.2,6.8h0.3l1.6-4.7h-0.3
							C233.2,64.9,229.1,63.1,225.1,61z"/>
					</g>
					<g id="id40">
						<path class="st0" d="M238.7,37.4l-1.8,3.1c-0.9,1.6-2.6,2.5-4.4,2.6h-3.9c-2.9,0-5.3-2.5-5.2-5.4c0,0,0-0.1,0-0.1v-8.4
							c0-0.5-0.3-0.8-0.5-0.8h-8.1v1.8c0.3,13.4-7.9,14.1-8.1,14.1h-0.3l-0.3-2.4l-0.3-2.3h0.3c0,0,4.2-0.5,3.9-9.2
							c0-2.1-0.3-4.2,1.3-5.8c0.8-0.8,1.8-1.2,2.9-1h8.9c3.1,0.1,5.5,2.7,5.5,5.8V38c0,0.2,0.1,0.4,0.3,0.5h3.9l0.3-0.3l1.8-3.1
							c0.3-0.3,0.8-0.5,1-0.3l2.9,1.6C238.7,36.7,239,37.2,238.7,37.4z"/>
					</g>
					<g id="id41">
						<path class="st0" d="M290.3,28.8v-6c0-0.4,0.4-0.8,0.8-0.8h14.1c0.4-0.1,0.7,0.2,0.8,0.6c0,0.1,0,0.1,0,0.2v6
							c0.1,0.4-0.2,0.7-0.6,0.8c-0.1,0-0.1,0-0.2,0h-14.1C290.7,29.5,290.4,29.2,290.3,28.8z M306,35.1v6c0,0.4-0.2,0.7-0.6,0.8
							c-0.1,0-0.1,0-0.2,0h-14.1c-0.4,0.1-0.7-0.2-0.8-0.6c0-0.1,0-0.1,0-0.2v-6c0-0.4,0.4-0.8,0.8-0.8h14.1
							C305.6,34.3,306,34.7,306,35.1z M285.6,35.1v6c0.1,0.4-0.2,0.7-0.6,0.8c-0.1,0-0.1,0-0.2,0h-12c-0.4,0.1-0.7-0.2-0.8-0.6
							c0-0.1,0-0.1,0-0.2c0.7-6,1-12,1-18.1c-0.1-0.4,0.2-0.7,0.6-0.8c0.1,0,0.1,0,0.2,0h11c0.4-0.1,0.7,0.2,0.8,0.6
							c0,0.1,0,0.1,0,0.2v5.8c0.1,0.4-0.2,0.7-0.6,0.8c-0.1,0-0.1,0-0.2,0h-8.6c-0.4-0.1-0.7,0.2-0.8,0.6c0,0.1,0,0.1,0,0.2v3.4
							c-0.1,0.4,0.2,0.7,0.6,0.8c0.1,0,0.1,0,0.2,0h8.6C285.3,34.3,285.6,34.8,285.6,35.1L285.6,35.1z M317.3,9.7v6.8
							c0,0.4-0.4,0.8-0.8,0.8h-42.7c-0.4,0-0.8-0.4-0.8-0.8V9.7c-0.1-0.4,0.2-0.7,0.6-0.8c0.1,0,0.1,0,0.2,0h42.7
							C316.9,8.9,317.2,9.3,317.3,9.7z M326.7,66.5c-4.8-1.5-9.3-3.7-13.4-6.5c-0.3-0.4-0.3-0.9,0-1.3c2.8-1.8,5.5-3.8,8.1-6
							l0.3-0.3l-3.1-3.4l-0.3-0.3l-0.3,0.3c-2.9,2.3-5.9,4.4-9.2,6.3c-0.2,0.2-0.5,0.1-0.7-0.1c0,0-0.1-0.1-0.1-0.2
							c-2.1-2.2-3.9-4.7-5.5-7.3c-0.3-0.5,0-1,0.8-1h22c0.4,0.1,0.7-0.2,0.8-0.6c0-0.1,0-0.1,0-0.2v-3.4c0-0.4-0.4-0.8-0.8-0.8
							h-13.6c-0.4,0-0.8-0.4-0.8-0.8v-6c0-0.4,0.4-0.8,0.8-0.8h9.7c0.4,0.1,0.7-0.2,0.8-0.6c0-0.1,0-0.1,0-0.2V30
							c0-0.4-0.2-0.7-0.6-0.8c-0.1,0-0.1,0-0.2,0h-9.7c-0.4,0-0.8-0.4-0.8-0.8v-5.5c0-0.4,0.4-0.8,0.8-0.8h7.1
							c1.7,0.1,3.1-1.2,3.2-2.8c0-0.1,0-0.3,0-0.4V8.6c-0.1-2.4-2-4.4-4.5-4.4h-47.1c-0.7,0-1.4,0.3-1.8,0.8
							c-0.5,0.5-0.7,1.2-0.8,1.8c0,0.5,2.1,46.8-8.1,60.2l-0.3,0.3l3.7,2.9l0.3,0.3l0.3-0.3c3.1-4.2,5.8-11.8,7.1-22.3
							c0-0.4,0.4-0.8,0.8-0.8h9.7c0.4-0.1,0.7,0.2,0.8,0.6c0,0.1,0,0.1,0,0.2v14.9c0,0.4-0.4,0.8-0.8,0.8l-7.1,1.3
							c-0.4,0-0.8,0.4-0.8,0.8l0.8,3.1c0,0.5,0.5,0.8,0.8,0.5l26.1-4.7c0.3,0,0.8-0.5,0.5-0.8l-0.5-3.4c0-0.3-0.5-0.8-0.8-0.5
							l-12.5,2.4c-0.4,0.1-0.7-0.2-0.8-0.6c0-0.1,0-0.1,0-0.2V47.6c-0.1-0.4,0.2-0.7,0.6-0.8c0.1,0,0.1,0,0.2,0h8.4
							c0.3,0,0.5,0.3,0.8,0.5c2.1,5,9.7,18.3,28.3,23.8h0.3L326.7,66.5z"/>
					</g>
					<g id="id42">
						<path class="st0" d="M356.3,13.4h13.9c0.4,0,0.8,0.4,0.8,0.8c-0.8,3.7-2.1,10.2-2.9,15.7c0,0.3-0.3,0.5-0.8,0.5h-7.9
							c-0.3,0-0.8-0.3-0.8-0.5c-0.8-5.2-2.1-12-2.9-15.7C355.5,13.9,355.7,13.4,356.3,13.4z M376.7,13.4h3.1
							c0.4,0.1,0.7-0.2,0.8-0.6c0-0.1,0-0.1,0-0.2V9.2c0.1-0.4-0.2-0.7-0.6-0.8c-0.1,0-0.1,0-0.2,0h-13.4c-0.4,0-0.7-0.2-0.8-0.6
							c0-0.1,0-0.1,0-0.2V2.1c0.1-0.4-0.2-0.7-0.6-0.8c-0.1,0-0.1,0-0.2,0h-3.4c-0.4,0-0.8,0.4-0.8,0.8v5.8c0.1,0.4-0.2,0.7-0.6,0.8
							c-0.1,0-0.1,0-0.2,0h-13.6c-0.4-0.1-0.7,0.2-0.8,0.6c0,0.1,0,0.1,0,0.2v3.1c-0.1,0.4,0.2,0.7,0.6,0.8c0.1,0,0.1,0,0.2,0h3.4
							c0.3,0,0.8,0.3,0.8,0.5c0.8,3.1,2.1,10,3.1,15.7c0.1,0.4-0.2,0.7-0.6,0.8c-0.1,0-0.1,0-0.2,0h-7.6c-0.4-0.1-0.7,0.2-0.8,0.6
							c0,0.1,0,0.1,0,0.2v3.4c0,0.4,0.4,0.8,0.8,0.8h36.4c0.4,0,0.8-0.4,0.8-0.8v-3.1c0.1-0.4-0.2-0.7-0.6-0.8c-0.1,0-0.1,0-0.2,0
							h-7.6c-0.4,0.1-0.7-0.2-0.8-0.6c0-0.1,0-0.1,0-0.2c0.8-5.5,2.4-12.3,2.9-15.7c-0.1-0.3,0-0.6,0.2-0.7
							C376.5,13.4,376.6,13.3,376.7,13.4z"/>
					</g>
					<g id="id43">
						<path class="st0" d="M372.8,46.9v13.6c0,0.4-0.4,0.8-0.8,0.8h-17c-0.4,0.1-0.7-0.2-0.8-0.6c0-0.1,0-0.1,0-0.2V46.9
							c-0.1-0.4,0.2-0.7,0.6-0.8c0.1,0,0.1,0,0.2,0h17C372.4,46.1,372.7,46.4,372.8,46.9z M374.3,41.1h-22c-1.7-0.1-3.1,1.2-3.1,2.9
							c0,0.1,0,0.2,0,0.3v24.1c-0.1,0.4,0.2,0.7,0.6,0.8c0.1,0,0.1,0,0.2,0h4.2V66h18.6v3.1h4.3c0.4,0,0.7-0.2,0.8-0.6
							c0-0.1,0-0.1,0-0.2V44.5C377.7,42.7,376.2,41.2,374.3,41.1L374.3,41.1z"/>
					</g>
					<g id="id44">
						<path class="st0" d="M403.9,29.8c-0.2-0.2-0.3-0.5-0.1-0.7c0,0,0.1-0.1,0.1-0.1l5.2-16.2c0.8-1.9,0.5-4.1-0.8-5.8
							c-1.1-1.7-3-2.6-5-2.6h-12.3c-2.4,0.1-4.4,2-4.5,4.4v60.7c-0.1,0.4,0.2,0.7,0.6,0.8c0.1,0,0.1,0,0.2,0h3.4
							c0.4,0,0.7-0.2,0.8-0.6c0-0.1,0-0.1,0-0.2V10.2c0-0.4,0.4-0.8,0.8-0.8h11.3c0.5,0,0.8,0.3,0.8,0.5c0.3,0.4,0.3,0.9,0,1.3
							l-5.8,17.5c-0.3,0.9-0.2,1.8,0.3,2.6c4.2,6,9.4,17,7.1,22c-1,1.8-3.4,2.9-7.3,2.9h-2.4V61h2.4c5.8,0,9.7-1.8,11.5-5.5
							C414.4,47.6,406.8,34.3,403.9,29.8z"/>
					</g>
				</g>
			</g>
		</g>
	</g>
</g>
</svg>
