<?xml version="1.0" encoding="utf-8"?>
<!-- Generator: Adobe Illustrator 24.2.1, SVG Export Plug-In . SVG Version: 6.00 Build 0)  -->
<svg version="1.1" id="圖層_1" xmlns="http://www.w3.org/2000/svg" xmlns:xlink="http://www.w3.org/1999/xlink" x="0px" y="0px"
	 width="132px" height="70.1px" viewBox="0 0 132 70.1" style="enable-background:new 0 0 132 70.1;" xml:space="preserve">
<style type="text/css">
	.st0{fill:#FFFFFF;}
</style>
<g>
	<g>
		<path class="st0" d="M64.8,47.5C50,47.5,49.6,70,64.8,70S79.6,47.5,64.8,47.5z M64.8,67c-10.9-0.2-10.9-16.3,0-16.5
			C75.7,50.7,75.7,66.8,64.8,67z"/>
		<path class="st0" d="M100.3,17.1c-0.8,0-1.5,0.7-1.5,1.5v11.2C97,27.6,94.3,26,90.6,26c-7.4,0-11.2,5.6-11.2,11.2
			c0.1,5.6,3.9,11.2,11.2,11.2c3.7,0,6.4-1.6,8.2-3.8v1.9c0,0.8,0.7,1.5,1.5,1.5s1.5-0.7,1.5-1.5v-28
			C101.8,17.8,101.1,17.1,100.3,17.1z M90.6,45.6c-5.4-0.1-8.2-4.2-8.2-8.3s2.7-8.2,8.2-8.3c5.4,0.1,8.2,4.2,8.2,8.3
			C98.7,41.4,96,45.5,90.6,45.6z"/>
		<path class="st0" d="M130.5,0.4c-0.9,0-1.5,0.7-1.5,1.5v1.8c-1.8-2.2-4.4-3.7-8.2-3.7c-7.4,0-11.2,5.6-11.2,11.2
			c0.1,5.6,3.9,11.2,11.2,11.2c3.7,0,6.4-1.5,8.2-3.7v1.9c0,0.9,0.7,1.5,1.5,1.5s1.5-0.7,1.5-1.5V1.9C132,1.1,131.3,0.4,130.5,0.4z
			 M120.8,19.5c-5.4-0.1-8.2-4.2-8.2-8.3s2.7-8.2,8.2-8.3c5.4,0.1,8.2,4.2,8.2,8.3C128.9,15.3,126.2,19.4,120.8,19.5z"/>
		<path class="st0" d="M30.5,47.9c-4.7,0-7.9,2.3-9.7,5.4c-1.8-3.1-5-5.4-9.7-5.4c-3.4,0-6.3,1.5-8.1,3.9v-1.9
			c0-0.9-0.7-1.5-1.5-1.5c-0.9,0-1.5,0.7-1.5,1.5v7.3V59v9.4C-0.1,69.3,0.6,70,1.4,70c0.9,0,1.5-0.7,1.5-1.5C3,66.7,2.8,59.3,3,56.6
			c0.1-0.6,0.2-0.9,0.3-1.1c1.2-2.8,3.9-4.5,7.7-4.6c5.4,0.1,8.2,4.2,8.2,8.3v9.4c0,0.9,0.7,1.5,1.5,1.5c0.9,0,1.5-0.7,1.5-1.5v-9.4
			l0,0c0-4.1,2.7-8.2,8.1-8.3c3.5,0,5.8,1.7,7.1,3.9c0.7,1.4,1.1,3.1,1.1,5.3v2.2v6.2c0,0.9,0.7,1.5,1.5,1.5c0.9,0,1.5-0.7,1.5-1.5
			v-6.2v-3.2C41.8,52.5,37.5,48,30.5,47.9z"/>
	</g>
</g>
</svg>
